<?xml version="1.0" encoding="UTF-8" standalone="no"?>
<svg width="149px" height="47px" viewBox="0 0 149 47" version="1.1" xmlns="http://www.w3.org/2000/svg" xmlns:xlink="http://www.w3.org/1999/xlink">
    <!-- Generator: Sketch 41.2 (35397) - http://www.bohemiancoding.com/sketch -->
    <title>Page 1</title>
    <desc>Created with Sketch.</desc>
    <defs>
        <polygon id="path-1" points="148.556187 24.6947559 148.556187 0.340789831 0 0.340789831 3.2395613e-20 24.6947559 148.556187 24.6947559"></polygon>
        <polygon id="path-3" points="112.840887 0.646050847 0.0494807487 0.646050847 0.0494807487 24.8535203 112.840887 24.8535203 112.840887 0.646050847"></polygon>
    </defs>
    <g id="Welcome" stroke="none" stroke-width="1" fill="none" fill-rule="evenodd">
        <g id="Mobile-Portrait" transform="translate(-11.000000, -7933.000000)">
            <g id="Page-1" transform="translate(11.000000, 7933.150000)">
                <g id="Group-3" transform="translate(0.000000, 21.659432)">
                    <mask id="mask-2" fill="white">
                        <use xlink:href="#path-1"></use>
                    </mask>
                    <g id="Clip-2"></g>
                    <path d="M5.73355187,9.59819661 L9.08007594,9.59819661 C10.3844235,9.59819661 12.0082845,9.47631525 13.2879316,8.5554339 C14.9117925,7.39158644 14.9858941,5.74419661 14.9858941,5.13877288 C14.9858941,3.75824746 14.3954717,2.37692542 13.263231,1.52773898 C11.9349797,0.558264407 10.3350225,0.535162712 8.98207059,0.486569492 L-0.000159358289,0.486569492 L-0.000159358289,1.11668814 L2.09141818,1.11668814 L2.09141818,16.9636542 L-0.000159358289,16.9636542 L-0.000159358289,17.5937729 L8.04663743,17.5937729 L8.04663743,16.9636542 L5.73355187,16.9636542 L5.73355187,9.59819661 Z M5.73355187,1.11668814 L7.92393155,1.11668814 C8.7111615,1.11668814 9.79400107,1.16448475 10.5071294,2.11006102 C10.974846,2.74017966 11.0975519,3.70885763 11.0975519,5.04158644 C11.0975519,7.12551864 10.4832257,7.99780678 10.1135144,8.26387458 C9.42508663,8.77450169 8.41555187,8.89478983 7.99723636,8.89478983 L5.73355187,8.89478983 L5.73355187,1.11668814 Z M19.7355679,0.340789831 C19.3172524,0.388586441 18.8248353,0.461077966 17.4463861,0.535162712 C16.4376481,0.582959322 15.6010171,0.582959322 14.936493,0.582959322 L14.936493,1.23777288 L16.7085572,1.23777288 L16.7085572,16.9636542 L14.936493,16.9636542 L14.936493,17.5937729 L21.2112257,17.5937729 L21.2112257,16.9636542 L19.7100706,16.9636542 L19.7100706,12.5544169 C19.7355679,11.1730949 19.7594717,9.62129831 21.1626214,8.67651864 C21.5315358,8.41045085 22.0239529,8.24077288 22.5649743,8.24077288 C23.918723,8.24077288 24.0414289,9.3313322 24.0167283,10.5668746 L24.0167283,16.9636542 L22.6637765,16.9636542 L22.6637765,17.5937729 L28.6923005,17.5937729 L28.6923005,16.9636542 L27.0684396,16.9636542 L27.0684396,10.4704847 C27.0684396,9.67068814 27.0931401,8.84699322 26.4039155,8.07109492 C26.0597016,7.68394237 25.2963754,7.17490847 23.8199209,7.17490847 C21.4821348,7.17490847 20.3012898,8.5554339 19.7355679,9.23494237 L19.7355679,0.340789831 Z M29.1496588,8.09499322 L30.8229209,8.09499322 L30.8229209,16.9636542 L29.1496588,16.9636542 L29.1496588,17.5937729 L35.4737925,17.5937729 L35.4737925,16.9636542 L33.8993326,16.9636542 L33.8993326,7.2474 C32.7423914,7.31989153 32.1025679,7.36768814 31.4874449,7.41707797 C30.8476214,7.44097627 30.2571989,7.46487458 29.1496588,7.46487458 L29.1496588,8.09499322 Z M30.2571989,3.00624746 C30.2571989,3.97572203 31.0444289,4.75162034 32.0292631,4.75162034 C33.0133005,4.75162034 33.8005305,3.97572203 33.8005305,3.00624746 C33.8005305,2.03756949 33.0133005,1.26087458 32.0292631,1.26087458 C31.0444289,1.26087458 30.2571989,2.03756949 30.2571989,3.00624746 L30.2571989,3.00624746 Z M40.7469583,0.340789831 C39.9597283,0.486569492 38.9756909,0.558264407 38.0896588,0.582959322 C37.2036267,0.607654237 36.3916963,0.607654237 35.9239797,0.607654237 L35.9239797,1.28556949 L37.6466428,1.28556949 L37.6466428,16.9636542 L35.9239797,16.9636542 L35.9239797,17.5937729 L42.371616,17.5937729 L42.371616,16.9636542 L40.7469583,16.9636542 L40.7469583,0.340789831 Z M52.262985,10.3486034 C52.262985,9.50180678 52.2884824,8.31406102 50.6144235,7.61145085 C49.9012952,7.31989153 49.0399636,7.17490847 48.1539316,7.17490847 C45.7667444,7.17490847 43.8480706,8.26387458 43.8480706,9.81487458 C43.8480706,10.5907729 44.4129957,11.1484 45.225723,11.1484 C46.062354,11.1484 46.6280759,10.5182814 46.6280759,9.79097627 C46.6280759,9.62129831 46.5786749,9.45162034 46.5053701,9.3074339 C46.4312684,9.11385763 46.283862,8.96807797 46.2097604,8.77450169 C46.1603594,8.67651864 46.1364556,8.60402712 46.1364556,8.50763729 C46.1364556,8.28856949 46.5053701,7.80502712 47.6129102,7.80502712 C49.2614717,7.80502712 49.3347765,8.62792542 49.3347765,9.64678983 L49.3347765,11.5610441 C47.8089209,11.7060271 45.7914449,11.8757051 44.4129957,12.8682814 C43.3309529,13.6441797 42.9859422,14.6383492 42.9859422,15.4142475 C42.9859422,16.1638576 43.3556535,17.8598407 45.8902471,17.8598407 C47.8089209,17.8598407 48.8431561,16.7469763 49.3347765,16.1885525 C49.6550866,16.8186712 50.196108,17.8598407 51.5992578,17.8598407 C52.8048032,17.8598407 53.5673326,17.1102305 54.0103487,16.6497898 L53.6167337,16.1168576 C53.4199262,16.2618407 53.1737176,16.4801119 52.8789048,16.4801119 C52.2884824,16.4801119 52.262985,15.7775017 52.262985,15.2198746 L52.262985,10.3486034 Z M49.3347765,14.1046203 C49.3347765,14.734739 49.359477,15.486739 48.6463487,16.0674678 C48.350739,16.2865356 47.9818246,16.4554169 47.5635091,16.4554169 C46.7021775,16.4554169 45.8902471,15.8014 45.8902471,14.5897559 C45.8902471,12.4333322 48.0312257,12.3106542 49.3347765,12.2381627 L49.3347765,14.1046203 Z M58.9560332,7.2474 C57.1353647,7.31989153 55.7083112,7.46487458 54.2071561,7.46487458 L54.2071561,8.09499322 L55.8804182,8.09499322 L55.8804182,16.9636542 L54.2071561,16.9636542 L54.2071561,17.5937729 L60.5312898,17.5937729 L60.5312898,16.9636542 L58.9560332,16.9636542 L58.9560332,12.4572305 C58.9560332,11.3419763 58.9560332,10.9062305 59.0548353,10.4943831 C59.3990492,9.11385763 60.7774984,8.28856949 61.6388299,8.28856949 C63.1391882,8.28856949 63.1391882,9.59819661 63.1391882,10.9540271 L63.1391882,16.9636542 L61.7615358,16.9636542 L61.7615358,17.5937729 L67.8147604,17.5937729 L67.8147604,16.9636542 L66.1908995,16.9636542 L66.1908995,10.4943831 C66.1908995,9.42692542 66.1908995,7.92531525 64.1981241,7.36768814 C63.5336,7.17490847 62.9670813,7.17490847 62.7949743,7.17490847 C62.303354,7.17490847 61.6627337,7.2474 60.9249048,7.53895932 C59.9161668,7.95001017 59.4978513,8.41045085 58.9560332,9.04056949 L58.9560332,7.2474 Z M71.9293914,3.39419661 L71.2401668,3.39419661 C69.8131134,6.44760339 68.2872578,7.19801017 67.1797176,7.70784068 L67.1797176,8.09499322 L68.9517818,8.09499322 L68.9023807,15.0255017 C68.9023807,16.0913661 68.9270813,17.8853322 71.4122738,17.8853322 C73.9715679,17.8853322 74.5619904,16.1407559 74.9070011,14.9777051 L74.2177765,14.8319254 C73.9221668,15.8014 73.5285519,16.6019932 72.790723,16.6019932 C71.9532952,16.6019932 71.9293914,15.7050102 71.9293914,15.1226881 L71.9293914,8.09499322 L74.0703701,8.09499322 L74.0703701,7.46487458 L71.9293914,7.46487458 L71.9293914,3.39419661 Z M79.3116642,0.340789831 C78.8933487,0.388586441 78.4009316,0.461077966 77.0232791,0.535162712 C76.0137444,0.582959322 75.1771134,0.582959322 74.5125893,0.582959322 L74.5125893,1.23777288 L76.2846535,1.23777288 L76.2846535,16.9636542 L74.5125893,16.9636542 L74.5125893,17.5937729 L80.7873219,17.5937729 L80.7873219,16.9636542 L79.2869636,16.9636542 L79.2869636,12.5544169 C79.3116642,11.1730949 79.3355679,9.62129831 80.7387176,8.67651864 C81.1076321,8.41045085 81.6000492,8.24077288 82.1410706,8.24077288 C83.4948193,8.24077288 83.6183219,9.3313322 83.5928246,10.5668746 L83.5928246,16.9636542 L82.2398727,16.9636542 L82.2398727,17.5937729 L88.2683968,17.5937729 L88.2683968,16.9636542 L86.6445358,16.9636542 L86.6445358,10.4704847 C86.6445358,9.67068814 86.6692364,8.84699322 85.9800118,8.07109492 C85.6350011,7.68394237 84.8732684,7.17490847 83.3960171,7.17490847 C81.058231,7.17490847 79.8773861,8.5554339 79.3116642,9.23494237 L79.3116642,0.340789831 Z M92.7471615,7.2474 C91.1480011,7.41707797 89.5233433,7.46487458 87.8994824,7.46487458 L87.8994824,8.09499322 L89.5727444,8.09499322 L89.5727444,16.9636542 L87.8994824,16.9636542 L87.8994824,17.5937729 L94.7160332,17.5937729 L94.7160332,16.9636542 L92.6738567,16.9636542 L92.6738567,12.3608407 C92.6738567,11.3913661 92.8698674,10.081739 93.6570973,9.01667119 C93.6570973,9.01667119 94.4451241,8.02250169 94.789338,8.02250169 C94.9614449,8.02250169 95.1343487,8.14358644 95.1343487,8.26387458 C95.1343487,8.33795932 95.0602471,8.41045085 95.010846,8.50763729 C94.8634396,8.70121356 94.6905358,8.96807797 94.6905358,9.40382373 C94.6905358,10.1072305 95.2570545,10.833739 96.2657925,10.833739 C97.5215358,10.833739 97.9151508,9.86426441 97.9151508,9.18555254 C97.9151508,8.24077288 97.2745305,7.17490847 95.7486749,7.17490847 C94.7407337,7.17490847 94.0268086,7.58675593 93.4610866,8.24077288 C93.1646802,8.5554339 92.943969,8.94338305 92.6969636,9.3313322 L92.7471615,7.2474 Z M109.749894,12.3106542 C109.504482,8.48373898 106.231263,7.17490847 103.992279,7.17490847 C101.481589,7.17490847 98.086461,8.72511186 98.086461,12.4811288 C98.086461,15.1951797 100.104734,17.8598407 104.065584,17.8598407 C107.634413,17.8598407 109.110867,15.5106373 109.454284,14.5658576 C109.72599,13.8624508 109.800092,13.0634508 109.749894,12.3106542 L109.749894,12.3106542 Z M106.404167,12.3369424 C106.428071,14.7116373 106.428071,17.3770949 103.992279,17.3770949 C102.910236,17.3770949 102.244916,16.7469763 101.950103,16.1638576 C101.752498,15.8245017 101.507087,15.317061 101.507087,12.4333322 C101.507087,10.3008068 101.556488,7.7803322 103.967579,7.7803322 C104.952413,7.7803322 105.691835,8.24077288 106.084653,9.11385763 C106.231263,9.42692542 106.379466,9.76787458 106.404167,12.3369424 L106.404167,12.3369424 Z M114.499568,7.2474 C112.924311,7.46487458 112.678899,7.46487458 109.72599,7.46487458 L109.72599,8.11968814 L111.325151,8.11968814 L111.325151,24.0168407 L109.72599,24.0168407 L109.72599,24.6947559 L116.443739,24.6947559 L116.443739,24.0168407 L114.450167,24.0168407 L114.450167,16.1407559 C115.114691,16.9166542 115.976022,17.8853322 117.77199,17.8853322 C119.839664,17.8853322 120.897803,16.6497898 121.364723,16.0443661 C122.324857,14.7594339 122.447563,13.5963831 122.447563,12.6994 C122.447563,8.75060339 119.716161,7.17490847 117.624584,7.17490847 C115.926621,7.17490847 115.114691,8.14358644 114.450167,8.94338305 L114.499568,7.2474 Z M119.051637,12.3106542 C119.101835,15.2445695 118.780728,17.084739 117.132964,17.084739 C116.198327,17.084739 115.287595,16.2865356 114.819878,15.3895525 C114.376862,14.5172644 114.301964,13.5238915 114.301964,12.5544169 C114.301964,9.8403661 115.213493,8.96807797 115.779215,8.53073898 C116.148129,8.26387458 116.566445,8.07109492 117.034161,8.07109492 C118.190306,8.07109492 118.584718,9.06367119 118.756825,9.71848475 C118.978333,10.5668746 119.026937,11.4391627 119.051637,12.3106542 L119.051637,12.3106542 Z M122.865878,8.09499322 L124.53914,8.09499322 L124.53914,16.9636542 L122.865878,16.9636542 L122.865878,17.5937729 L129.190809,17.5937729 L129.190809,16.9636542 L127.615552,16.9636542 L127.615552,7.2474 C126.459407,7.31989153 125.81799,7.36768814 125.204461,7.41707797 C124.563841,7.44097627 123.974215,7.46487458 122.865878,7.46487458 L122.865878,8.09499322 Z M123.974215,3.00624746 C123.974215,3.97572203 124.761445,4.75162034 125.745482,4.75162034 C126.72952,4.75162034 127.515953,3.97572203 127.515953,3.00624746 C127.515953,2.03756949 126.72952,1.26087458 125.745482,1.26087458 C124.761445,1.26087458 123.974215,2.03756949 123.974215,3.00624746 L123.974215,3.00624746 Z M139.845504,11.8757051 C139.6726,10.7851458 139.500493,9.71848475 138.517252,8.67651864 C137.581022,7.68394237 136.227274,7.17490847 134.848825,7.17490847 C131.650504,7.17490847 129.41152,9.47631525 129.41152,12.5050271 C129.41152,15.4381458 131.552498,17.8853322 135.046429,17.8853322 C138.024039,17.8853322 139.157076,15.8746881 139.722001,14.8080271 L139.106878,14.5172644 C138.492552,15.486739 137.458317,17.1349254 135.365942,17.1349254 C132.90545,17.1349254 132.832145,14.7116373 132.807445,13.7899593 C132.782744,13.1351458 132.807445,12.5050271 132.807445,11.8757051 L139.845504,11.8757051 Z M132.882343,9.86426441 C132.979552,8.89478983 133.127755,7.73173898 134.848825,7.73173898 C136.449579,7.73173898 136.52368,8.91868814 136.597782,9.76787458 L136.597782,11.1730949 L132.856846,11.1730949 L132.882343,9.86426441 Z M147.842103,10.1542305 L147.842103,7.05302712 L147.152878,7.05302712 C147.104274,7.58675593 147.079573,7.82812881 146.63576,7.82812881 C146.43975,7.82812881 146.317044,7.7803322 146.070835,7.63455254 C145.65252,7.41707797 144.987996,7.17490847 144.126664,7.17490847 C141.813579,7.17490847 140.829541,8.84699322 140.829541,10.4449932 C140.829541,12.8212814 142.576108,13.3773153 144.150568,13.8871458 C145.160103,14.1779085 146.93137,14.3953831 146.93137,15.6803153 C146.93137,16.4554169 146.120236,17.2313153 144.839793,17.2313153 C144.028659,17.2313153 143.16653,16.9166542 142.552204,16.3351288 C141.715573,15.5839254 141.56737,14.6869424 141.419964,13.9118407 L140.706039,13.9118407 L140.706039,17.5937729 L141.419964,17.5937729 C141.394466,17.4240949 141.370563,16.9405525 141.813579,16.9405525 C141.985686,16.9405525 142.207194,17.084739 142.600809,17.3038068 C142.748215,17.4009932 143.635044,17.8853322 144.767284,17.8853322 C147.448488,17.8853322 148.556825,15.8245017 148.556825,14.2265017 C148.556825,11.9975864 146.661258,11.4638576 145.479616,11.1252983 L144.741787,10.9309254 C144.052563,10.7612475 143.240632,10.4704847 143.019124,10.2761119 C142.724311,10.034739 142.552204,9.64678983 142.552204,9.28273898 C142.552204,8.53073898 143.265333,7.85282373 144.298771,7.85282373 C144.913097,7.85282373 145.627819,8.07109492 146.120236,8.43514576 C146.833365,8.96807797 146.980771,9.52490847 147.152878,10.1542305 L147.842103,10.1542305 Z" id="Fill-1" fill="#FEFEFE" mask="url(#mask-2)"></path>
                </g>
                <g id="Group-6" transform="translate(0.000000, 0.150958)">
                    <mask id="mask-4" fill="white">
                        <use xlink:href="#path-3"></use>
                    </mask>
                    <g id="Clip-5"></g>
                    <path d="M0.0494807487,0.790316949 L0.0494807487,1.42043559 L2.14105829,1.42043559 L2.14105829,17.2697915 L0.0494807487,17.2697915 L0.0494807487,17.8999102 L7.72656631,17.8999102 C10.310561,17.8744186 13.4116733,17.8744186 14.7399246,15.4272322 C15.1343364,14.6999271 15.2323417,13.9495203 15.2323417,13.3671983 C15.2323417,10.8961136 13.4116733,9.68367288 11.7137107,9.24792712 C11.1224914,9.10294407 10.5073684,9.03045254 9.86754492,8.95716441 C10.4340636,8.88387627 10.9997856,8.78748644 11.540807,8.64170678 C13.2387695,8.13346949 14.4204112,6.89713051 14.4204112,5.03146949 C14.4204112,3.79513051 13.9773952,2.51099492 12.426839,1.61401186 C11.0738872,0.863605085 9.49863048,0.815011864 8.07157701,0.790316949 L0.0494807487,0.790316949 Z M5.78319198,9.34431695 L8.07157701,9.34431695 C8.78550214,9.34431695 9.81894064,9.41760508 10.532069,10.2906898 C11.1224914,10.9933 11.2212936,12.1316559 11.2212936,13.3671983 C11.2212936,14.409961 11.147192,15.378639 10.7041759,16.1067407 C10.0404487,17.1718085 9.05561444,17.2697915 8.24368396,17.2697915 L5.78319198,17.2697915 L5.78319198,9.34431695 Z M5.78319198,1.46982542 L7.70266257,1.46982542 C9.7201385,1.46982542 10.753577,1.9533678 10.753577,5.15335085 C10.753577,7.98768983 9.7201385,8.66719831 7.80066791,8.66719831 L5.78319198,8.66719831 L5.78319198,1.46982542 Z M20.2274273,0.645333898 C19.4401973,0.790316949 18.4553631,0.863605085 17.569331,0.88750339 C16.6840957,0.911401695 15.8713684,0.911401695 15.4044487,0.911401695 L15.4044487,1.59091017 L17.1271118,1.59091017 L17.1271118,17.2697915 L15.4044487,17.2697915 L15.4044487,17.8999102 L21.8512882,17.8999102 L21.8512882,17.2697915 L20.2274273,17.2697915 L20.2274273,0.645333898 Z M33.7864273,12.6167915 C33.5394219,8.78748644 30.2669995,7.47865593 28.0280155,7.47865593 C25.5181225,7.47865593 22.1221973,9.03045254 22.1221973,12.7864695 C22.1221973,15.5005203 24.1396733,18.165978 28.1013203,18.165978 C31.6693524,18.165978 33.145807,15.8151814 33.4908176,14.8704017 C33.7609299,14.1669949 33.8350316,13.3671983 33.7864273,12.6167915 L33.7864273,12.6167915 Z M30.4391064,12.6406898 C30.463807,15.0153847 30.463807,17.6808424 28.0280155,17.6808424 C26.9451759,17.6808424 26.2806519,17.0507237 25.985839,16.4699949 C25.7882348,16.130639 25.5420262,15.6208085 25.5420262,12.7370797 C25.5420262,10.6045542 25.5914273,8.08407966 28.003315,8.08407966 C28.9873524,8.08407966 29.7259781,8.54531695 30.119593,9.41760508 C30.2669995,9.73306271 30.4144059,10.071622 30.4391064,12.6406898 L30.4391064,12.6406898 Z M46.3526251,12.6167915 C46.1064166,8.78748644 42.8339941,7.47865593 40.5942134,7.47865593 C38.0843203,7.47865593 34.689192,9.03045254 34.689192,12.7864695 C34.689192,15.5005203 36.7066679,18.165978 40.668315,18.165978 C44.2363471,18.165978 45.7128016,15.8151814 46.0578123,14.8704017 C46.3279246,14.1669949 46.4020262,13.3671983 46.3526251,12.6167915 L46.3526251,12.6167915 Z M43.0061011,12.6406898 C43.0308016,15.0153847 43.0308016,17.6808424 40.5942134,17.6808424 C39.5113738,17.6808424 38.8476465,17.0507237 38.5528337,16.4699949 C38.3552294,16.130639 38.1090209,15.6208085 38.1090209,12.7370797 C38.1090209,10.6045542 38.1584219,8.08407966 40.5703096,8.08407966 C41.5543471,8.08407966 42.2921759,8.54531695 42.6865877,9.41760508 C42.8339941,9.73306271 42.9814005,10.071622 43.0061011,12.6406898 L43.0061011,12.6406898 Z M51.2744059,7.55114746 C49.8959567,7.72082542 49.3796358,7.77021525 46.5741332,7.77021525 L46.5741332,8.4003339 L48.1979941,8.4003339 L48.1979941,17.2697915 L46.5741332,17.2697915 L46.5741332,17.8999102 L52.775561,17.8999102 L52.775561,17.2697915 L51.2497053,17.2697915 L51.2497053,12.1316559 C51.3230102,10.9933 51.3724112,10.1935034 51.9628337,9.46619831 C52.381946,8.98106271 53.0217695,8.59391017 53.7595984,8.59391017 C55.0878497,8.59391017 55.2360529,9.73306271 55.2360529,11.1135881 L55.2360529,17.2697915 L53.9070048,17.2697915 L53.9070048,17.8999102 L59.6901171,17.8999102 L59.6901171,17.2697915 L58.2136626,17.2697915 L58.2136626,12.5443 C58.2136626,11.2601644 58.2630636,10.1688085 59.1729995,9.29652034 C59.6654166,8.83687627 60.255839,8.57001186 60.7968604,8.57001186 C62.2000102,8.57001186 62.2000102,9.75775763 62.2000102,10.9933 L62.2000102,17.2697915 L60.8462615,17.2697915 L60.8462615,17.8999102 L66.7767802,17.8999102 L66.7767802,17.2697915 L65.2517214,17.2697915 L65.2517214,10.9208085 C65.1776198,9.61118136 65.1529193,7.47865593 61.9044005,7.47865593 C59.5180102,7.47865593 58.582577,8.95716441 58.2136626,9.56338475 C57.6471439,8.52062203 57.0320209,7.45475763 54.8177374,7.45475763 C52.8982668,7.45475763 51.9875342,8.49752034 51.2744059,9.32041864 L51.2744059,7.55114746 Z M71.0332401,0.645333898 C69.9998016,0.815011864 68.8683578,0.88750339 68.3759406,0.911401695 L66.234962,0.911401695 L66.234962,1.59091017 L67.9576251,1.59091017 L67.9576251,17.2697915 L66.234962,17.2697915 L66.234962,17.8999102 L71.0093364,17.8999102 L71.0093364,16.3728085 C71.6491599,17.1479102 72.6825984,18.165978 74.6267695,18.165978 C76.0291225,18.165978 77.284069,17.7533339 78.342208,16.3975034 C79.4497481,15.0153847 79.5230529,13.657961 79.5230529,12.9553508 C79.5230529,9.03045254 76.7916519,7.47865593 74.5765717,7.47865593 C72.6825984,7.47865593 71.7718658,8.44813051 71.0332401,9.24792712 L71.0332401,0.645333898 Z M76.1279246,12.5913 C76.1279246,15.2814525 76.0530262,17.3908763 74.0849513,17.3908763 C73.1989193,17.3908763 72.2395824,16.8810458 71.6491599,15.9601644 C71.0332401,15.0153847 70.9105342,13.6826559 70.9105342,12.8581644 C70.9105342,12.2041475 71.0093364,10.8714186 71.5503578,9.90194407 C72.0674754,8.98106271 73.1256144,8.23065593 74.0849513,8.23065593 C75.610807,8.23065593 75.8570155,9.61118136 75.9550209,10.0963169 C76.0785235,10.7742322 76.1279246,11.8894864 76.1279246,12.5913 L76.1279246,12.5913 Z M90.843069,12.1802492 C90.6701652,11.0896898 90.4980583,10.0238254 89.5140209,8.98106271 C88.5785877,7.98768983 87.2256358,7.47865593 85.8479834,7.47865593 C82.648069,7.47865593 80.409085,9.78085932 80.409085,12.8103678 C80.409085,15.7426898 82.5500636,18.1906729 86.0439941,18.1906729 C89.0216037,18.1906729 90.1538444,16.1784356 90.7195663,15.1125712 L90.1044433,14.8210119 C89.4885235,15.7904864 88.4558818,17.4386729 86.3643043,17.4386729 C83.9030155,17.4386729 83.8289139,15.0153847 83.8050102,14.0945034 C83.7803096,13.4404864 83.8050102,12.8103678 83.8050102,12.1802492 L90.843069,12.1802492 Z M83.878315,10.1688085 C83.9771171,9.20013051 84.1245235,8.03707966 85.8479834,8.03707966 C87.4471439,8.03707966 87.5212455,9.2232322 87.5945503,10.071622 L87.5945503,11.4768424 L83.8544112,11.4768424 L83.878315,10.1688085 Z M95.8867588,7.55114746 C94.2875984,7.72082542 92.6637374,7.77021525 91.0390797,7.77021525 L91.0390797,8.4003339 L92.7123417,8.4003339 L92.7123417,17.2697915 L91.0390797,17.2697915 L91.0390797,17.8999102 L97.8556305,17.8999102 L97.8556305,17.2697915 L95.813454,17.2697915 L95.813454,12.6645881 C95.813454,11.6951136 96.0094647,10.3870797 96.7974914,9.32041864 C96.7974914,9.32041864 97.5847214,8.32704576 97.9289353,8.32704576 C98.1002455,8.32704576 98.273946,8.44813051 98.273946,8.57001186 C98.273946,8.64170678 98.1998444,8.71419831 98.1512401,8.81138475 C98.0030369,9.00575763 97.8309299,9.27182542 97.8309299,9.7083678 C97.8309299,10.410978 98.3958551,11.1382831 99.4061866,11.1382831 C100.661133,11.1382831 101.053951,10.1688085 101.053951,9.49089322 C101.053951,8.54531695 100.414128,7.47865593 98.889069,7.47865593 C97.880331,7.47865593 97.1664059,7.89050339 96.5998872,8.54531695 C96.3050743,8.86077458 96.0835663,9.24792712 95.8381545,9.63587627 L95.8867588,7.55114746 Z M103.712048,16.9782322 C102.900117,16.9782322 102.185395,16.9535373 102.185395,16.1784356 C102.185395,15.4033339 103.145529,14.8943 103.908058,14.6043339 C104.425973,14.8465034 105.090497,15.1603678 106.418748,15.1603678 C108.903941,15.1603678 110.995518,13.827639 110.995518,11.2346729 C110.995518,10.410978 110.725406,9.95053729 110.454497,9.46619831 C110.528598,9.12763898 110.601903,9.00575763 110.725406,9.00575763 C110.847315,9.00575763 110.872016,9.00575763 111.06962,9.24792712 C111.217823,9.44150339 111.487935,9.56338475 111.783545,9.56338475 C112.496673,9.56338475 112.840887,9.03045254 112.840887,8.47282542 C112.840887,7.77021525 112.300663,7.35757119 111.684743,7.35757119 C111.365229,7.35757119 110.995518,7.47865593 110.700705,7.69772373 C110.232989,8.03707966 110.109486,8.49752034 109.98678,8.86077458 C109.298352,8.27845254 108.362919,7.47865593 106.443449,7.47865593 C104.203668,7.47865593 101.693775,8.71419831 101.693775,11.3565542 C101.693775,12.9800458 102.72801,13.7798424 103.367037,14.2880797 C102.776614,14.4816559 100.856347,15.1603678 100.856347,17.366978 C100.856347,17.7302322 100.906545,18.4073508 101.522465,19.0374695 C101.989384,19.5473 102.359096,19.6436898 102.87462,19.7400797 C102.185395,19.9838424 100.881048,20.4195881 100.881048,21.7770119 C100.881048,23.278622 102.70331,24.8535203 106.246641,24.8535203 C109.617866,24.8535203 112.127759,23.2069271 112.127759,20.2738085 C112.127759,19.5234017 112.005053,18.8932831 111.511839,18.2137746 C110.626604,16.9535373 109.715871,16.9782322 107.944604,16.9782322 L103.712048,16.9782322 Z M104.672181,11.2346729 C104.672181,9.51399492 104.672181,8.06018136 106.345443,8.06018136 C106.566155,8.06018136 107.328684,8.06018136 107.722299,8.86077458 C107.969304,9.39370678 107.969304,9.92743559 107.969304,11.3318593 C107.969304,13.0533339 107.969304,14.4577576 106.370144,14.4577576 C104.745486,14.4577576 104.672181,13.1497237 104.672181,11.2346729 L104.672181,11.2346729 Z M109.17485,19.9344525 C109.691967,19.9344525 110.922213,19.9097576 110.922213,21.2671814 C110.922213,22.7703847 109.17485,24.0784186 106.246641,24.0784186 C103.539144,24.0784186 102.603711,22.6970966 102.603711,21.6073339 C102.603711,20.8067407 102.998122,20.3948932 103.441139,19.9344525 L109.17485,19.9344525 Z" id="Fill-4" fill="#FEFEFE" mask="url(#mask-4)"></path>
                </g>
            </g>
        </g>
    </g>
</svg>