<svg width="126px" height="24px" viewBox="0 0 126 24" version="1.1" xmlns="http://www.w3.org/2000/svg" xmlns:xlink="http://www.w3.org/1999/xlink">
    <!-- Generator: Sketch 49.3 (51167) - http://www.bohemiancoding.com/sketch -->
    <desc>Created with Sketch.</desc>
    <defs>
        <polygon id="path-1" points="0.4739 0.723 15.6939 0.723 15.6939 7.3056 0.4739 7.3056"></polygon>
    </defs>
    <g id="Welcome" stroke="none" stroke-width="1" fill="none" fill-rule="evenodd">
        <g id="Desktop" transform="translate(-37.000000, -7863.000000)">
            <g id="Page-1" transform="translate(37.000000, 7862.000000)">
                <g id="Group-3" transform="translate(109.000000, 0.277400)">
                    <mask id="mask-2" fill="white">
                        <use xlink:href="#path-1"></use>
                    </mask>
                    <g id="Clip-2"></g>
                    <path d="M1.2959,0.7226 C0.8419,0.7226 0.4739,1.0896 0.4739,1.5436 L0.4739,7.3056 L15.6939,7.3056 L8.7629,0.7236 L1.2959,0.7226 Z" id="Fill-1" fill="#FEFEFE" mask="url(#mask-2)"></path>
                </g>
                <path d="M125.252,9.3262 C125.252,8.8722 124.885,8.5052 124.429,8.5052 L118.669,8.5052 L118.669,23.7252 L125.249,16.7922 L125.252,9.3262 Z" id="Fill-4" fill="#FEFEFE"></path>
                <path d="M116.9229,24.2774 C117.3759,24.2774 117.7429,23.9104 117.7429,23.4554 L117.7429,17.6944 L102.5229,17.6944 L109.4539,24.2764 L116.9229,24.2774 Z" id="Fill-6" fill="#FEFEFE"></path>
                <path d="M101.9668,15.9522 C101.9668,16.4062 102.3348,16.7752 102.7878,16.7752 L108.5498,16.7752 L108.5498,1.5542 L101.9678,8.4862 L101.9668,15.9522 Z" id="Fill-8" fill="#FEFEFE"></path>
                <polygon id="Fill-10" fill="#FEFEFE" points="32.2012 3.7783 32.2012 10.8073 22.4082 10.8073 22.4082 3.7783 18.8422 3.7763 18.8422 21.4993 22.4082 21.4993 22.4082 13.8843 32.2012 13.8843 32.2012 21.4993 35.7742 21.4993 35.7742 3.7783"></polygon>
                <polygon id="Fill-12" fill="#FEFEFE" points="79.6514 3.7783 79.6514 21.4943 95.2994 21.4943 93.3174 18.3773 83.2294 18.3773 83.2294 13.8843 92.9974 13.8843 92.9974 10.8803 83.2294 10.8803 83.2294 6.8243 93.3014 6.8243 95.2434 3.7783"></polygon>
                <path d="M5.5845,3.7744 C1.8735,3.7744 0.0005,6.0294 0.0005,9.3114 L0.0005,15.9274 C0.0005,19.7254 2.4145,21.4994 5.5655,21.4994 L16.7545,21.4974 L14.6815,18.2584 L6.2565,18.2584 C4.4665,18.2584 3.6885,17.6114 3.6885,15.6084 L3.6885,9.6064 C3.6885,7.6704 4.3445,6.9144 6.3045,6.9144 L14.7695,6.9144 L16.7605,3.7744 L5.5845,3.7744 Z" id="Fill-14" fill="#FEFEFE"></path>
                <path d="M63.9995,3.7695 C61.8555,3.7695 59.6615,5.0575 59.6615,8.3705 L59.6615,9.2215 C59.6615,12.6735 61.7745,13.9925 63.8875,14.0015 L71.3085,14.0015 C72.0805,14.0015 72.7065,14.1295 72.7065,15.4325 L72.7055,16.9385 C72.6865,18.1065 72.1005,18.3765 71.2825,18.3765 L61.5195,18.3765 L59.5195,21.4945 L71.5115,21.4945 C74.4045,21.4945 76.3675,20.0565 76.3675,16.7325 L76.3675,15.5115 C76.3675,12.2975 74.5425,10.7805 71.7145,10.7805 L64.6285,10.7805 C63.8435,10.7805 63.2965,10.5655 63.2965,9.4025 C63.2965,9.4005 63.2955,8.1765 63.2955,8.1765 C63.2955,7.1855 63.6715,6.8245 64.5865,6.8245 L73.8835,6.8205 L75.8275,3.7665 L63.9995,3.7695 Z" id="Fill-16" fill="#FEFEFE"></path>
                <path d="M46.1377,3.7793 L37.7347,21.4973 L41.7057,21.4973 L43.3427,17.8383 L52.4737,17.8383 L54.1057,21.4973 L58.0937,21.4973 L49.6707,3.7793 L46.1377,3.7793 Z M47.8987,7.4573 L51.1287,14.8223 L44.6897,14.8223 L47.8987,7.4573 Z" id="Fill-18" fill="#FEFEFE"></path>
            </g>
        </g>
    </g>
</svg>