<?xml version="1.0" encoding="utf-8"?>
<!-- Generator: Adobe Illustrator 19.2.1, SVG Export Plug-In . SVG Version: 6.00 Build 0)  -->
<svg version="1.1" id="Layer_1" xmlns="http://www.w3.org/2000/svg" xmlns:xlink="http://www.w3.org/1999/xlink" x="0px" y="0px"
	 viewBox="0 0 95 95" enable-background="new 0 0 95 95" xml:space="preserve">
<g>
	<path fill="#FFFFFF" d="M0,0v95h0.7H95V0H0z M93,93H2V2h91V93z"/>
	<g>
		<path fill="#FFFFFF" d="M15.2,57.6l-1-2.2h-3.4l0,0.1c-0.2,0.5-0.6,1.5-0.8,2.1H8.1l2.9-6.4c0.5-1,0.8-1.8,1-2.5l0.9-0.1l2.9,6.4
			c0.3,0.8,0.8,1.8,1.2,2.6L15.2,57.6z M13.7,54.2l-1.2-2.9l-1.2,2.9H13.7z"/>
		<path fill="#FFFFFF" d="M24.7,57.6l-2.1-3.3h-1.1v1.4c0,0.5,0,1.4,0.1,1.8h-1.9c0.1-0.6,0.1-2.2,0.1-3v-2.7c0-0.8,0-2.4-0.1-3
			c0.4,0,2,0,2.6-0.1c2.4,0,3.7,1.1,3.6,2.6c0,1.2-0.6,2-1.8,2.5l1.4,2c0.3,0.4,0.9,1.2,1.1,1.6L24.7,57.6z M21.5,53.1h1.1
			c1,0,1.6-0.7,1.6-1.5c0-0.9-0.5-1.5-1.8-1.5c-0.3,0-0.6,0-0.9,0c0,0.2,0,0.6,0,0.7V53.1z"/>
		<path fill="#FFFFFF" d="M36,50.1c-0.9,0-1.7,0-2.7,0c0,0.3,0,0.6,0,0.8v4.8c0,0.5,0,1.4,0.1,1.8h-1.9c0.1-0.6,0.1-2.2,0.1-3v-2.4
			c0-0.5,0-1.3,0-2c-1.1,0-1.9,0-2.8,0c0-0.4,0.1-1,0.1-1.5c1.2,0,2.3,0.1,3.7,0.1c1.4,0,2.6,0,3.7-0.1C36,49.2,36,49.6,36,50.1z"/>
		<path fill="#FFFFFF" d="M9.6,72c0.1-0.6,0.1-2.2,0.1-3v-2.8c0-0.8,0-2.4-0.1-3c0.5,0,1.5,0,1.9-0.1c0,0.4,0,1.4,0,1.8v5.2
			c0,0.5,0,1.4,0,1.8H9.6z"/>
		<path fill="#FFFFFF" d="M23.5,65l-0.1,5.2c0,0.5,0,1.5,0,1.8l-0.9,0.1l-5.1-6v4c0,0.5,0,1.4,0.1,1.8h-1.8c0.1-0.6,0.1-2.2,0.1-3
			l0-2.9c0-0.8,0-2.3-0.1-2.9l0.9-0.1l5.2,6.1v-2.8c0-0.8,0-2.4-0.1-3c0.5,0,1.4,0,1.8-0.1C23.5,63.5,23.5,64.5,23.5,65z"/>
		<path fill="#FFFFFF" d="M29.7,72.2c-0.9,0-2-0.3-2.6-0.7l0.1-1.7c0.5,0.5,1.6,0.9,2.6,0.9c0.8,0,1.3-0.4,1.3-1.1
			c0-1.5-3.7-1.6-3.7-4c0-1.5,1.2-2.6,2.9-2.6c0.9,0,1.7,0.3,2.3,0.6l-0.4,1.4c-0.5-0.3-1.2-0.6-1.8-0.6c-0.8,0-1.2,0.4-1.2,1
			c0,1.4,3.7,1.5,3.7,4C32.7,71.1,31.5,72.2,29.7,72.2z"/>
		<path fill="#FFFFFF" d="M42.6,64.6c-0.9,0-1.7,0-2.8,0c0,0.3,0,0.6,0,0.8v4.8c0,0.5,0,1.4,0,1.8h-1.9c0.1-0.6,0.1-2.2,0.1-3v-2.4
			c0-0.5,0-1.3,0-2c-1.1,0-1.9,0-2.8,0c0-0.4,0-1,0-1.5c1.2,0,2.3,0.1,3.7,0.1c1.4,0,2.6,0,3.7-0.1C42.7,63.6,42.6,64.1,42.6,64.6z"
			/>
		<path fill="#FFFFFF" d="M45.4,72c0.1-0.6,0.1-2.2,0.1-3v-2.8c0-0.8,0-2.4-0.1-3c0.5,0,1.5,0,1.9-0.1c0,0.4,0,1.4,0,1.8v5.2
			c0,0.5,0,1.4,0,1.8H45.4z"/>
		<path fill="#FFFFFF" d="M57.5,64.6c-0.9,0-1.7,0-2.8,0c0,0.3,0,0.6,0,0.8v4.8c0,0.5,0,1.4,0.1,1.8h-1.9c0.1-0.6,0.1-2.2,0.1-3
			v-2.4c0-0.5,0-1.3,0-2c-1.1,0-1.9,0-2.8,0c0-0.4,0.1-1,0.1-1.5c1.2,0,2.3,0.1,3.7,0.1c1.4,0,2.6,0,3.7-0.1
			C57.5,63.6,57.5,64.1,57.5,64.6z"/>
		<path fill="#FFFFFF" d="M68.1,63.3l-2.7,6.4c-0.5,1-0.7,1.7-1,2.5l-0.9,0.1l-2.7-6.4c-0.3-0.8-0.8-1.8-1.1-2.5l1.9-0.1l2.5,6.1
			l1.5-3.8c0.2-0.5,0.6-1.6,0.8-2.2H68.1z"/>
		<path fill="#FFFFFF" d="M77.3,64.6c-0.9,0-1.7,0-2.8,0c0,0.3,0,0.6,0,0.8v4.8c0,0.5,0,1.4,0.1,1.8h-1.9c0.1-0.6,0.1-2.2,0.1-3
			v-2.4c0-0.5,0-1.3,0-2c-1.1,0-1.9,0-2.8,0c0-0.4,0.1-1,0.1-1.5c1.2,0,2.3,0.1,3.7,0.1c1.4,0,2.6,0,3.7-0.1
			C77.3,63.6,77.3,64.1,77.3,64.6z"/>
		<path fill="#FFFFFF" d="M86,72c-0.8,0-1.7-0.1-2.6-0.1c-1,0-2,0-2.8,0.1c0.1-0.6,0.1-2.2,0.1-3v-2.8c0-0.8,0-2.4-0.1-3
			c0.8,0,1.7,0.1,2.7,0.1c0.9,0,1.8,0,2.6-0.1c-0.1,0.5-0.1,0.9-0.1,1.4c-0.7,0-1.4,0-2.2,0c-0.4,0-0.7,0-1.1,0c0,0.2,0,0.5,0,0.7
			v1.5h2.9c0,0.4,0,0.8,0,1.3h-2.9v1.8c0,0.2,0,0.5,0,0.7c0.4,0,0.7,0,1.1,0c1,0,1.8,0,2.6,0C86,71.1,86,71.5,86,72z"/>
		<path fill="#FFFFFF" d="M16.1,85.8c-0.8,0.6-1.7,0.9-2.8,0.9c-2.6,0-4.4-2-4.4-4.4c0-2.7,1.9-4.8,4.7-4.8c0.9,0,1.9,0.3,2.6,0.7
			l-0.4,1.5c-0.6-0.4-1.3-0.7-2.1-0.7c-1.7,0-2.9,1.3-2.9,3.1c0,2.1,1.2,3.2,2.8,3.2c1.1,0,1.9-0.4,2.6-1.1L16.1,85.8z"/>
		<path fill="#FFFFFF" d="M25.7,86.5c0.1-0.6,0.1-2.1,0.1-2.9v-0.9h-4v2.1c0,0.5,0,1.4,0.1,1.8h-1.9c0.1-0.6,0.1-2.2,0.1-3v-2.8
			c0-0.8,0-2.4-0.1-3c0.5,0,1.5,0,1.9-0.1c0,0.4-0.1,1.4-0.1,1.8v1.8h4v-0.6c0-0.8,0-2.4-0.1-3c0.5,0,1.5,0,1.9-0.1
			c0,0.4-0.1,1.4-0.1,1.8v5.2c0,0.5,0,1.4,0.1,1.8H25.7z"/>
		<path fill="#FFFFFF" d="M31.7,86.5c0.1-0.6,0.1-2.2,0.1-3v-2.8c0-0.8,0-2.4-0.1-3c0.5,0,1.5,0,1.9-0.1c0,0.4,0,1.4,0,1.8v5.2
			c0,0.5,0,1.4,0,1.8H31.7z"/>
		<path fill="#FFFFFF" d="M44.5,85.8c-0.8,0.6-1.7,0.9-2.8,0.9c-2.6,0-4.4-2-4.4-4.4c0-2.7,1.9-4.8,4.7-4.8c0.9,0,1.9,0.3,2.6,0.7
			l-0.4,1.5C43.5,79.3,42.8,79,42,79c-1.7,0-2.9,1.3-2.9,3.1c0,2.1,1.2,3.2,2.8,3.2c1.1,0,1.9-0.4,2.7-1.1L44.5,85.8z"/>
		<path fill="#FFFFFF" d="M54,86.6l-1-2.2h-3.4l0,0.1c-0.2,0.5-0.6,1.5-0.8,2.1h-1.8l2.9-6.4c0.5-1,0.8-1.8,1-2.5l0.9-0.1l2.9,6.4
			c0.3,0.8,0.8,1.8,1.2,2.6L54,86.6z M52.5,83.1l-1.2-2.9l-1.2,2.9H52.5z"/>
		<path fill="#FFFFFF" d="M64.1,82.3c0.7,0,1.1,0,1.8,0c-0.1,0.5-0.1,1.6-0.1,2.4v1.1c-0.7,0.5-1.7,0.9-3.3,0.9
			c-2.6,0-4.5-2-4.5-4.4c0-2.8,2.1-4.8,4.8-4.8c1.2,0,2.2,0.4,2.9,0.8l-0.5,1.5c-0.6-0.4-1.5-0.8-2.5-0.8c-1.8,0-3,1.3-3,3.1
			c0,2.1,1.4,3.2,2.9,3.2c0.6,0,1.1-0.1,1.6-0.3v-1.2c0-0.2,0-0.5,0-0.7L64.1,82.3z"/>
		<path fill="#FFFFFF" d="M77.7,81.9c0,2.7-1.8,4.8-4.5,4.8c-2.6,0-4.3-2-4.3-4.4c0-2.7,1.8-4.8,4.5-4.8
			C76,77.5,77.7,79.5,77.7,81.9z M76,82.1c0-2-1.1-3.2-2.7-3.2c-1.6,0-2.7,1.4-2.7,3.2c0,2,1.1,3.2,2.7,3.2
			C74.9,85.3,76,83.9,76,82.1z"/>
	</g>
</g>
</svg>
