<?xml version="1.0" encoding="utf-8"?>
<!-- Generator: Adobe Illustrator 21.0.0, SVG Export Plug-In . SVG Version: 6.00 Build 0)  -->
<svg version="1.1" id="Layer_1" xmlns="http://www.w3.org/2000/svg" xmlns:xlink="http://www.w3.org/1999/xlink" x="0px" y="0px"
	 viewBox="0 0 530 143" style="enable-background:new 0 0 530 143;" xml:space="preserve">
<style type="text/css">
	.st0{fill:#1A4176;}
	.st1{fill:#1A4176;}
</style>
<path class="st1" d="M431.4,113.4h-5.2l-0.6,2.2h5.3l-4.8,16.2c-0.3,0.9-0.7,2.4-0.7,3.5c0,1.4,0.8,2.8,2.4,2.8
	c3.9,0,8.4-5.1,10.8-7.8l-0.8-0.9c-1.4,1.4-4.6,4.7-6.7,4.7c-0.8,0-1.1-0.5-1.1-1.2c0-0.5,0.2-1.2,0.3-1.7l4.7-15.6h5.7l0.6-2.2
	h-5.8l2.2-6.8h-4.3L431.4,113.4z"/>
<path class="st1" d="M403.6,130.5c-0.6,1.1-1.2,2.1-1.2,3.4c0,3.5,4.3,4.2,6.9,4.2c2.5,0,4.6-0.7,6.4-2.5c1.4-1.4,3.5-3.7,3.5-5.8
	c0-5.6-9.6-6.8-9.6-11.2c0-2.1,2.2-3.1,4.1-3.1c1.8,0,3.9,0.9,4.4,1.9c0.2,0.4,0.3,0.8,0.8,0.8h0.6c0.6,0,1.1-1.8,1.1-2.4
	c0-2.6-2.5-3.2-4.7-3.2c-1.7,0-2.5,0.3-4,1.2c-2.1,1.4-5.9,3.8-5.9,6.6c0,0.8,0.1,1.7,0.5,2.5c1.6,3.5,9.5,5.8,9.5,9.6
	c0,2.1-3.3,2.4-4.8,2.4c-2.8,0-6.3-1.2-6.9-4.3H403.6z"/>
<path class="st1" d="M398.9,100c-1.4,0-2.5,1.2-2.5,2.5c0,1.2,1.2,2.4,2.5,2.4c1.3,0,2.5-1.2,2.5-2.4
	C401.4,101.2,400.3,100,398.9,100"/>
<path class="st1" d="M389.9,120.3c0.6-0.9,2.7-3.5,3.8-3.5c0.4,0,0.6,0.3,0.6,0.6c0,0.5-0.2,1.2-0.5,2l-4.6,13.7
	c-0.3,1.1-0.6,2-0.6,2.7c0,1.2,0.5,2.2,2.1,2.2c3.1,0,6.9-4.9,8.6-7.1l-0.9-0.7c-0.5,0.6-3.4,3.5-4.1,3.5c-0.5,0-0.7-0.3-0.7-0.8
	c0-0.5,0.2-1.2,0.5-2.3l4.4-13.7c0.3-0.8,0.8-2.2,0.8-3c0-0.8-0.4-1.4-1.7-1.4c-3.1,0-7,4.6-8.5,7L389.9,120.3z"/>
<path class="st1" d="M383.7,129.9c-0.8,0.9-3.7,3.4-4.7,3.4c-0.4,0-0.9-0.2-0.9-0.6c0-0.6,0.5-1.7,0.8-2.5l4.3-12.7
	c0.3-0.8,0.5-1.8,0.5-2.6c0-1.2-0.5-2.2-2.2-2.2c-5.1,0-13.2,9.1-16.2,12.8h-0.1l2.6-8.1c0.3-1,0.6-2.1,0.6-2.9c0-1-0.8-1.8-2.4-1.8
	c-4.8,0-12.8,8.9-15.4,12.7h-0.1l2.8-8.2c0.2-0.6,0.6-1.7,0.6-2.6c0-1-0.5-1.9-1.8-1.9c-3.6,0-7.4,4.3-9.4,6.9l0.8,1l1.5-1.6
	c1-1,2-1.9,3.1-1.9c0.6,0,0.9,0.5,0.9,1.1c0,0.5-0.2,1-0.2,1.4l-5.7,17.2c0.3,0.4,1.2,0.7,1.7,0.7c0.6,0,1.8-0.2,2-0.6l1.1-3.1
	c1.5-4.1,3.8-7.8,6.8-11c1.7-1.9,5-5.7,7.9-5.7c0.8,0,1,0.6,1,1.4c0,1.4-0.8,3.5-0.9,4l-4.9,14.4c0.2,0.4,1.2,0.8,1.9,0.8
	c0.5,0,1.7-0.2,1.8-0.6l1-2.5c1.5-3.9,3-6.7,5.6-9.8c1.7-2.1,6.7-7.6,9.5-7.6c0.6,0,1.2,0.4,1.2,1.3c0,0.5-0.3,1.5-0.6,2.2
	l-4.4,12.5c-0.4,1.1-0.6,1.9-0.6,2.5c0,1.4,1,1.8,2,1.8c3,0,5.5-2.4,7.6-4.8l1.7-1.8L383.7,129.9z"/>
<path class="st1" d="M327.1,135.2c-2.5,0-4.4-1.5-4.4-4.2c0-1.4,0.1-2.8,0.4-4.2c5.8-0.5,16.1-3.1,16.1-10.4c0-3-2.9-3.8-5.3-3.8
	c-7.8,0-15.6,9.6-15.6,18.2c0,3.6,1.7,7.3,6.7,7.3c4.8,0,8.7-3.1,12.3-7l-0.8-0.9C333.4,133.1,330.3,135.2,327.1,135.2z
	 M332.7,114.3c1.4,0,2.2,0.9,2.2,2.3c0,5.9-6.5,8.5-11.5,8.8C324.3,121.9,328.5,114.3,332.7,114.3z"/>
<path class="st1" d="M305,96.2l-0.6-0.2c-1.3,0.4-2.5,0.7-3.8,0.9c-1.4,0.2-2.7,0.4-3.6,0.5l-0.2,0.7l2.6,1.5l-8.5,35
	c-0.1,0.5-0.3,1.1-0.3,1.7c0,0.6,1,0.9,1.7,0.9c1.8,0,2.2-0.4,2.3-0.9c1-4.1,1.4-5.8,3.2-9.2c1.6-3,7.9-11.2,11.7-11.2
	c1.6,0,2.2,1.4,2.2,3.2c0,3.7-2.3,10-4,13.4H304l-1.1,2.6c-0.1,0.3-0.3,0.8-0.3,1.1c0,0.6,0.3,1.2,1.3,1.2c5.6,0,12.2-14.5,12.2-20
	c0-2.7-1-4.7-3.9-4.7c-5,0-12.4,8.4-14.7,12.1h-0.1L305,96.2z"/>
<path class="st1" d="M286.8,129.4c-2.4,2.5-6,5.8-9.7,5.8c-3.2,0-5.1-1.9-5.1-5c0-4.5,3.9-14.4,9.4-14.4c1.7,0,2.5,1.7,4.4,1.7
	c1.4,0,2.5-1.2,2.5-2.8c0-1.4-1.5-2.2-2.6-2.2c-1.6,0-4.5,1.2-6.1,1.8c-6.4,2.6-11.9,9-11.9,16.3c0,4.2,2.3,7.4,6.6,7.4
	c5.6,0,9.8-3.7,13.3-7.7L286.8,129.4z"/>
<path class="st1" d="M265.8,96.3l-0.4-0.3c-1.2,0.4-2.5,0.8-3.9,1.1c-1.4,0.3-2.8,0.5-3.9,0.6l-0.3,0.8l3.2,1.7l-7.6,32.7
	c-0.2,0.6-0.4,1.6-0.4,2.6c0,1.4,0.3,2.6,2,2.6c3.4,0,6.4-5,8.2-7.4l-0.6-1.1c-0.6,0.8-3.1,4.2-4.2,4.2c-0.6,0-0.7-0.5-0.7-1.1
	c0-0.4,0.1-0.9,0.2-1.1L265.8,96.3z"/>
<path class="st1" d="M243,132.5l-5.9-33.6l-0.3-0.2c-0.6,0.3-1.3,0.4-1.9,0.6l-18.6,32.9c-1.1,2.1-2.3,3.7-4.9,3.6l-0.3,1.4
	c1.7-0.1,3.3-0.1,5-0.1c2.1,0,4.3,0.1,6.4,0.1l0.3-1.4h-1.6c-0.9,0-2.3-0.2-2.3-1.6c0-0.5,0.2-1.1,0.6-1.9l4.4-9.2h12.7l1.6,10.7
	c0.3,2.2-2.2,2.1-3.8,2.1l-0.3,1.4c1.9-0.1,3.9-0.1,5.8-0.1c2.3,0,4.5,0.1,6.8,0.1l0.3-1.4C244.5,136,243.4,134.8,243,132.5z
	 M225,120.9l8.7-16.1h0.1l2.4,16.1H225z"/>
<path class="st1" d="M176.9,130.5c-0.6,1.1-1.2,2.1-1.2,3.4c0,3.5,4.3,4.2,6.9,4.2c2.5,0,4.6-0.7,6.4-2.5c1.4-1.4,3.5-3.7,3.5-5.8
	c0-5.6-9.6-6.8-9.6-11.2c0-2.1,2.2-3.1,4.1-3.1c1.8,0,3.9,0.9,4.4,1.9c0.2,0.4,0.3,0.8,0.8,0.8h0.6c0.6,0,1.1-1.8,1.1-2.4
	c0-2.6-2.5-3.2-4.7-3.2c-1.7,0-2.5,0.3-4,1.2c-2.1,1.4-5.9,3.8-5.9,6.6c0,0.8,0.1,1.7,0.5,2.5c1.6,3.5,9.5,5.8,9.5,9.6
	c0,2.1-3.3,2.4-4.8,2.4c-2.8,0-6.3-1.2-6.9-4.3H176.9z"/>
<g>
	<path class="st1" d="M173,112.2c0.1-0.2,0.1-0.3,0.1-0.4c0-0.2-0.2-0.3-0.5-0.3h-1.1c-0.6,0-1,0.7-1.2,1.1l-0.8,1.7
		c-0.8-1-2.1-1.8-3.4-1.8c-7,0-17.5,12.4-17.5,21c0,1.9,0.8,4.5,4.1,4.5c4.3,0,9.4-6.2,12.1-10.4h0.1l-1.6,4.9
		c-0.5,1.5-0.9,3-0.9,3.9c0,1.1,1,1.5,1.8,1.5c3.4,0,6.5-4.8,8.7-7l-0.9-0.7c-1,0.9-2.4,3.2-4,3.2c-0.5,0-0.6-0.4-0.6-0.8
		c0-0.5,0.1-0.9,0.2-1.4L173,112.2z M155.4,134.1c-2.1,0-2.8-1.9-2.8-3.7c0-5.4,6.2-15.2,12-15.2c1.4,0,2.7,1.4,2.7,2.8
		C167.3,122.7,160.6,134.1,155.4,134.1z"/>
	<polygon class="st0" points="164.9,127.8 164.8,127.7 164.8,127.8 	"/>
</g>
<path class="st1" d="M123.6,113.4h-5.2l-0.6,2.2h5.3l-4.8,16.2c-0.3,0.9-0.7,2.4-0.7,3.5c0,1.4,0.8,2.8,2.4,2.8
	c3.9,0,8.4-5.1,10.8-7.8l-0.8-0.9c-1.4,1.4-4.6,4.7-6.7,4.7c-0.8,0-1.1-0.5-1.1-1.2c0-0.5,0.2-1.2,0.3-1.7l4.7-15.6h5.7l0.6-2.2
	h-5.8l2.2-6.8h-4.3L123.6,113.4z"/>
<path class="st1" d="M96.9,130.5c-0.6,1.1-1.2,2.1-1.2,3.4c0,3.5,4.3,4.2,6.9,4.2c2.5,0,4.6-0.7,6.4-2.5c1.4-1.4,3.5-3.7,3.5-5.8
	c0-5.6-9.6-6.8-9.6-11.2c0-2.1,2.2-3.1,4.1-3.1c1.8,0,3.9,0.9,4.4,1.9c0.2,0.4,0.3,0.8,0.8,0.8h0.6c0.6,0,1.1-1.8,1.1-2.4
	c0-2.6-2.5-3.2-4.7-3.2c-1.7,0-2.5,0.3-4,1.2c-2.1,1.4-5.9,3.8-5.9,6.6c0,0.8,0.1,1.7,0.5,2.5c1.6,3.5,9.5,5.8,9.5,9.6
	c0,2.1-3.3,2.4-4.8,2.4c-2.8,0-6.3-1.2-6.9-4.3H96.9z"/>
<path class="st1" d="M92.3,100c-1.4,0-2.5,1.2-2.5,2.5c0,1.2,1.2,2.4,2.5,2.4c1.3,0,2.5-1.2,2.5-2.4C94.7,101.2,93.6,100,92.3,100"
	/>
<path class="st1" d="M83.3,120.3c0.6-0.9,2.7-3.5,3.8-3.5c0.4,0,0.6,0.3,0.6,0.6c0,0.5-0.2,1.2-0.5,2l-4.6,13.7
	c-0.3,1.1-0.6,2-0.6,2.7c0,1.2,0.5,2.2,2.1,2.2c3.1,0,6.9-4.9,8.6-7.1l-0.9-0.7c-0.5,0.6-3.4,3.5-4.1,3.5c-0.5,0-0.7-0.3-0.7-0.8
	c0-0.5,0.2-1.2,0.5-2.3l4.4-13.7c0.3-0.8,0.8-2.2,0.8-3c0-0.8-0.4-1.4-1.7-1.4c-3.1,0-7,4.6-8.5,7L83.3,120.3z"/>
<path class="st1" d="M70.6,113.4h-5.2l-0.6,2.2H70l-4.8,16.2c-0.3,0.9-0.7,2.4-0.7,3.5c0,1.4,0.8,2.8,2.4,2.8
	c3.9,0,8.4-5.1,10.8-7.8l-0.8-0.9c-1.4,1.4-4.6,4.7-6.7,4.7c-0.8,0-1.1-0.5-1.1-1.2c0-0.5,0.2-1.2,0.3-1.7l4.7-15.6h5.7l0.6-2.2
	h-5.8l2.2-6.8h-4.3L70.6,113.4z"/>
<path class="st1" d="M43.1,120.7c0.9-1.1,3.1-3.6,4.5-3.6c0.7,0,1,0.8,1,1.4c0,0.8-0.4,2.3-0.6,3.2l-4.3,14.9
	c-0.1,0.2-0.1,0.3-0.1,0.5c0,0.5,1,1,1.7,1c1,0,1.8-0.1,1.9-0.4l1-3.5c1.8-5.5,5.6-16,9.4-16c0.6,0,1.4,0.2,2,0.2
	c1.7,0,2.3-2.8,2.3-4c0-1.2-0.5-1.8-1.7-1.8c-3.4,0-8.5,9.5-9.9,12.3h-0.1l2.1-7.4c0.3-1.2,0.5-2.2,0.5-2.8c0-1.5-0.9-2.1-2.2-2.1
	c-2.6,0-6.8,5.2-8.2,7.2L43.1,120.7z"/>
<path class="st1" d="M33.9,132.5l-5.9-33.6l-0.3-0.2c-0.6,0.3-1.3,0.4-1.9,0.6L7,132.2c-1.1,2.1-2.3,3.7-4.9,3.6l-0.3,1.4
	c1.7-0.1,3.3-0.1,5-0.1c2.1,0,4.3,0.1,6.4,0.1l0.3-1.4h-1.6c-0.9,0-2.3-0.2-2.3-1.6c0-0.5,0.2-1.1,0.6-1.9l4.4-9.2h12.7l1.6,10.7
	c0.3,2.2-2.2,2.1-3.8,2.1l-0.3,1.4c1.9-0.1,3.9-0.1,5.8-0.1c2.3,0,4.5,0.1,6.8,0.1l0.3-1.4C35.3,136,34.2,134.8,33.9,132.5z
	 M15.8,120.9l8.7-16.1h0.1l2.4,16.1H15.8z"/>
<polygon class="st0" points="465,66.8 481.4,66.8 481.4,28.1 481.6,28.1 511.7,66.8 528.2,66.8 528.2,3.6 511.7,3.6 511.7,42.3
	511.5,42.3 481.4,3.6 465,3.6 "/>
<rect x="422.7" y="3.6" class="st0" width="16.4" height="63.3"/>
<path class="st0" d="M380.7,3.6v33.3c0,8.2-0.6,17.2-11.2,17.2s-11.2-9-11.2-17.2V3.6H342v35.6c0,8.1,0.3,16.2,6.6,22.3
	c5.3,5.2,13.6,7,21,7s15.7-1.8,21-7c6.3-6.1,6.6-14.2,6.6-22.3V3.6H380.7z"/>
<path class="st0" d="M287,31.5v12.9h13.4c-0.7,7.3-6.1,11-13.3,11c-10.8,0-16.7-10-16.7-19.8c0-9.6,5.6-20,16.4-20
	c6.6,0,11.4,4,13.7,10.1l15.6-6.5c-5.5-11.8-15.5-17.7-28.5-17.7c-20.4,0-34.3,13.5-34.3,34.1c0,19.9,13.8,33.4,33.7,33.4
	c10.6,0,19.9-3.8,26.1-12.4c5.6-7.9,6.3-15.8,6.5-25H287z"/>
<path class="st0" d="M214.6,3.6v33.3c0,8.2-0.6,17.2-11.2,17.2c-10.6,0-11.2-9-11.2-17.2V3.6h-16.4v35.6c0,8.1,0.3,16.2,6.6,22.3
	c5.3,5.2,13.6,7,21,7c7.4,0,15.7-1.8,21-7c6.3-6.1,6.6-14.2,6.6-22.3V3.6H214.6z"/>
<path class="st0" d="M132.2,3.6h-18L89.9,66.8h17.5l4.4-11h22.7l4.1,11H156L132.2,3.6z M116.2,43.3l6.8-20.1h0.2l6.7,20.1H116.2z"/>
<path class="st0" d="M40.3,31.5v12.9h13.4c-0.7,7.3-6.1,11-13.3,11c-10.8,0-16.7-10-16.7-19.8c0-9.6,5.6-20,16.4-20
	c6.6,0,11.4,4,13.7,10.1l15.6-6.5C64,7.4,54,1.5,41,1.5C20.6,1.5,6.7,15,6.7,35.5c0,19.9,13.8,33.4,33.7,33.4
	c10.6,0,19.9-3.8,26.1-12.4c5.6-7.9,6.3-15.8,6.5-25H40.3z"/>
</svg>
