<?xml version="1.0" encoding="utf-8"?>
<!-- Generator: Adobe Illustrator 21.0.0, SVG Export Plug-In . SVG Version: 6.00 Build 0)  -->
<svg version="1.1" id="Layer_1" xmlns="http://www.w3.org/2000/svg" xmlns:xlink="http://www.w3.org/1999/xlink" x="0px" y="0px"
	 viewBox="0 0 547.3 131.2" style="enable-background:new 0 0 547.3 131.2;" xml:space="preserve">
<style type="text/css">
	.st0{fill:#FFFFFF;}
</style>
<g>
	<g>
		<path class="st0" d="M0.2,24.3l2-2.1c0.4-0.4,0.8-0.3,1.2,0c0.5,0.5,1.3,1.2,2.6,1.2c1.5,0,3.1-1.2,3.1-3.9V1.1
			c0-0.4,0.3-0.7,0.7-0.7h3.7c0.4,0,0.7,0.4,0.7,0.7v18.4c0,5.4-3.6,8.5-8.2,8.5c-3.4,0-5.3-2-5.9-2.8C-0.1,24.9,0,24.6,0.2,24.3z"
			/>
		<path class="st0" d="M36.5,0c7.8,0,14.1,6.3,14.1,14.1s-6.2,14-14.1,14s-14-6.2-14-14S28.7,0,36.5,0z M36.5,23c4.9,0,9-4,9-8.9
			s-4.1-9-9-9s-8.9,4.1-8.9,9S31.6,23,36.5,23z"/>
		<path class="st0" d="M59.4,1.1c0-0.4,0.4-0.7,0.7-0.7h3.6c0.4,0,0.7,0.4,0.7,0.7v10.3h12.7V1.1c0-0.4,0.3-0.7,0.7-0.7h3.6
			c0.4,0,0.7,0.4,0.7,0.7V27c0,0.4-0.4,0.7-0.7,0.7H78c-0.4,0-0.7-0.4-0.7-0.7V16.2H64.5V27c0,0.4-0.3,0.7-0.7,0.7h-3.6
			c-0.4,0-0.7-0.4-0.7-0.7V1.1z"/>
		<path class="st0" d="M92.9,0.7c0-0.4,0.4-0.7,0.7-0.7h1l16.2,17.3h0V1.1c0-0.4,0.3-0.7,0.7-0.7h3.6c0.4,0,0.7,0.4,0.7,0.7v26.3
			c0,0.4-0.4,0.7-0.7,0.7h-0.9L98,10.2h0V27c0,0.4-0.3,0.7-0.7,0.7h-3.6c-0.4,0-0.7-0.4-0.7-0.7V0.7z"/>
		<path class="st0" d="M137,23.9l1.4-2.4c0.3-0.5,1-0.5,1.3-0.3c0.2,0.1,3.4,2.4,5.9,2.4c2,0,3.6-1.3,3.6-3c0-2-1.7-3.4-5-4.7
			c-3.7-1.5-7.3-3.8-7.3-8.4c0-3.5,2.6-7.5,8.8-7.5c4,0,7,2,7.8,2.6c0.4,0.2,0.5,0.9,0.2,1.3l-1.5,2.2c-0.3,0.5-0.9,0.8-1.4,0.5
			c-0.3-0.2-3.3-2.1-5.4-2.1c-2.2,0-3.4,1.5-3.4,2.7c0,1.8,1.4,3.1,4.6,4.4c3.8,1.5,8.2,3.8,8.2,8.8c0,4-3.5,7.7-9,7.7
			c-4.9,0-7.8-2.3-8.6-3C136.9,24.7,136.7,24.5,137,23.9z"/>
		<path class="st0" d="M163.5,1.1c0-0.4,0.4-0.7,0.7-0.7h3.6c0.4,0,0.7,0.4,0.7,0.7V27c0,0.4-0.4,0.7-0.7,0.7h-3.6
			c-0.4,0-0.7-0.4-0.7-0.7V1.1z"/>
		<path class="st0" d="M179.1,0.7c0-0.4,0.4-0.7,0.7-0.7h1l16.2,17.3h0V1.1c0-0.4,0.3-0.7,0.7-0.7h3.6c0.4,0,0.7,0.4,0.7,0.7v26.3
			c0,0.4-0.4,0.7-0.7,0.7h-0.9l-16.3-17.9h0V27c0,0.4-0.3,0.7-0.7,0.7h-3.6c-0.4,0-0.7-0.4-0.7-0.7V0.7z"/>
		<path class="st0" d="M224.9,0c3.5,0,6.9,1.4,9.5,3.6c0.3,0.3,0.4,0.8,0,1.1l-2.4,2.5c-0.3,0.3-0.7,0.3-1,0
			c-1.7-1.5-3.7-2.3-5.9-2.3c-4.9,0-8.7,4.2-8.7,9.1c0,4.8,3.9,8.9,8.8,8.9c2.2,0,3.9-0.7,4.6-1v-3.3h-3.1c-0.4,0-0.7-0.3-0.7-0.7
			v-3.1c0-0.4,0.3-0.7,0.7-0.7h7.5c0.4,0,0.7,0.4,0.7,0.7v10c0,0.3-0.2,0.5-0.3,0.6c0,0-4,2.5-9.7,2.5c-7.8,0-14-6.2-14-14
			S217.2,0,224.9,0z"/>
		<path class="st0" d="M244.6,1.1c0-0.4,0.3-0.7,0.7-0.7h15.9c0.4,0,0.7,0.4,0.7,0.7v3.2c0,0.4-0.3,0.7-0.7,0.7h-11.6v6.4h9.6
			c0.4,0,0.7,0.4,0.7,0.7v3.2c0,0.4-0.4,0.7-0.7,0.7h-9.6V23h11.6c0.4,0,0.7,0.4,0.7,0.7V27c0,0.4-0.3,0.7-0.7,0.7h-15.9
			c-0.4,0-0.7-0.4-0.7-0.7V1.1z"/>
		<path class="st0" d="M271.2,1.1c0-0.4,0.3-0.7,0.7-0.7h11.2c4.7,0,8.5,3.7,8.5,8.4c0,3.6-2.4,6.5-5.8,7.9l5.3,9.9
			c0.3,0.5,0,1.1-0.7,1.1h-4.1c-0.4,0-0.5-0.2-0.6-0.4L280.6,17h-4.3v10c0,0.4-0.4,0.7-0.7,0.7h-3.6c-0.4,0-0.7-0.4-0.7-0.7V1.1z
			 M282.7,12.8c2.1,0,3.9-1.8,3.9-4c0-2.1-1.8-3.8-3.9-3.8h-6.4v7.8H282.7z"/>
		<path class="st0" d="M311.2,23.9l1.4-2.4c0.3-0.5,1-0.5,1.3-0.3c0.2,0.1,3.4,2.4,5.9,2.4c2,0,3.6-1.3,3.6-3c0-2-1.7-3.4-5-4.7
			c-3.7-1.5-7.3-3.8-7.3-8.4c0-3.5,2.6-7.5,8.8-7.5c4,0,7,2,7.8,2.6c0.4,0.2,0.5,0.9,0.2,1.3l-1.5,2.2c-0.3,0.5-0.9,0.8-1.4,0.5
			c-0.3-0.2-3.3-2.1-5.4-2.1c-2.2,0-3.4,1.5-3.4,2.7c0,1.8,1.4,3.1,4.6,4.4c3.8,1.5,8.2,3.8,8.2,8.8c0,4-3.5,7.7-9,7.7
			c-4.9,0-7.8-2.3-8.6-3C311.1,24.7,310.9,24.5,311.2,23.9z"/>
		<path class="st0" d="M334.2,26.7l12.1-26.3c0.1-0.2,0.3-0.4,0.7-0.4h0.4c0.4,0,0.5,0.2,0.7,0.4l12,26.3c0.2,0.5-0.1,1-0.7,1H356
			c-0.6,0-0.9-0.2-1.1-0.8l-1.9-4.2h-11.7l-1.9,4.2c-0.2,0.4-0.5,0.8-1.1,0.8h-3.4C334.3,27.7,334,27.2,334.2,26.7z M351,18.4
			l-3.9-8.6H347l-3.8,8.6H351z"/>
		<path class="st0" d="M367.3,1.1c0-0.4,0.3-0.7,0.7-0.7h11.2c4.7,0,8.5,3.7,8.5,8.4c0,3.6-2.4,6.5-5.8,7.9l5.3,9.9
			c0.3,0.5,0,1.1-0.7,1.1h-4.1c-0.4,0-0.5-0.2-0.6-0.4L376.7,17h-4.3v10c0,0.4-0.4,0.7-0.7,0.7H368c-0.4,0-0.7-0.4-0.7-0.7V1.1z
			 M378.8,12.8c2.1,0,3.9-1.8,3.9-4c0-2.1-1.8-3.8-3.9-3.8h-6.4v7.8H378.8z"/>
		<path class="st0" d="M408.7,0c3.5,0,6.9,1.4,9.5,3.6c0.3,0.3,0.4,0.8,0,1.1l-2.4,2.5c-0.3,0.3-0.7,0.3-1,0
			c-1.7-1.5-3.7-2.3-5.9-2.3c-4.9,0-8.7,4.2-8.7,9.1c0,4.8,3.9,8.9,8.8,8.9c2.2,0,3.9-0.7,4.6-1v-3.3h-3.1c-0.4,0-0.7-0.3-0.7-0.7
			v-3.1c0-0.4,0.3-0.7,0.7-0.7h7.5c0.4,0,0.7,0.4,0.7,0.7v10c0,0.3-0.2,0.5-0.3,0.6c0,0-4,2.5-9.7,2.5c-7.8,0-14-6.2-14-14
			S400.9,0,408.7,0z"/>
		<path class="st0" d="M428.3,1.1c0-0.4,0.3-0.7,0.7-0.7H445c0.4,0,0.7,0.4,0.7,0.7v3.2c0,0.4-0.3,0.7-0.7,0.7h-11.6v6.4h9.6
			c0.4,0,0.7,0.4,0.7,0.7v3.2c0,0.4-0.4,0.7-0.7,0.7h-9.6V23H445c0.4,0,0.7,0.4,0.7,0.7V27c0,0.4-0.3,0.7-0.7,0.7h-15.9
			c-0.4,0-0.7-0.4-0.7-0.7V1.1z"/>
		<path class="st0" d="M454.9,0.7c0-0.4,0.4-0.7,0.7-0.7h1l16.2,17.3h0V1.1c0-0.4,0.3-0.7,0.7-0.7h3.6c0.4,0,0.7,0.4,0.7,0.7v26.3
			c0,0.4-0.4,0.7-0.7,0.7h-0.9L460,10.2h0V27c0,0.4-0.3,0.7-0.7,0.7h-3.6c-0.4,0-0.7-0.4-0.7-0.7V0.7z"/>
		<path class="st0" d="M492.2,5.1h-6c-0.4,0-0.7-0.4-0.7-0.7V1.1c0-0.4,0.3-0.7,0.7-0.7h17.1c0.4,0,0.7,0.4,0.7,0.7v3.2
			c0,0.4-0.3,0.7-0.7,0.7h-6V27c0,0.4-0.4,0.7-0.7,0.7h-3.6c-0.4,0-0.7-0.4-0.7-0.7V5.1z"/>
		<path class="st0" d="M528.1,12.9L528.1,12.9l-0.8-1c-1.6-1.6-2.7-3.3-2.7-5.6c0-3,2.5-6.3,7.4-6.3c4.4,0,7.4,2.8,7.4,6.4
			c0,4-4,6.4-4.8,7.1l4.5,4.5c0.6-1.2,1.1-2.8,1.4-4.3c0.2-0.8,0.4-1.2,1.3-1l2.1,0.6c1,0.3,0.7,1.1,0.7,1.5
			c-0.7,2.8-1.9,5.3-2.4,6.2l3.5,3.3c0.5,0.5,0.9,0.9-0.1,1.8l-1.6,1.6c-0.5,0.4-1.1,0.5-1.7-0.1l-2.8-2.8c-0.7,0.8-3.4,3.3-8.5,3.3
			c-5,0-8.2-3.4-8.2-7.3C522.7,15.6,527.4,13.3,528.1,12.9z M531.5,23.9c2.9,0,4.4-1.6,5-2.3l-5.8-6.2c-0.6,0.4-3.3,1.7-3.3,4.8
			C527.4,22.4,529.2,23.9,531.5,23.9z M535.2,6.6c0-1.5-1.3-2.9-3.3-2.9c-1.8,0-2.9,1.2-2.9,2.7c0,1.4,0.9,2.3,2,3.5l0.9,0.9
			C532.5,10.3,535.2,9,535.2,6.6z"/>
	</g>
	<g>
		<path class="st0" d="M50.9,46.8c3.9,0,6.8,1.2,9.4,3.6c0.4,0.3,0.4,0.8,0,1.1L58,54c-0.3,0.3-0.7,0.3-1,0c-1.6-1.4-3.8-2.3-6-2.3
			c-5,0-8.7,4.2-8.7,9.1c0,4.9,3.7,9,8.7,9c2.3,0,4.3-0.9,6-2.2c0.3-0.3,0.7-0.2,1,0l2.4,2.5c0.3,0.3,0.2,0.8,0,1.1
			c-2.7,2.6-6,3.8-9.5,3.8c-7.8,0-14.1-6.2-14.1-14S43.1,46.8,50.9,46.8z"/>
		<path class="st0" d="M68.9,48c0-0.4,0.4-0.7,0.7-0.7h3.6c0.4,0,0.7,0.4,0.7,0.7v10.3h12.7V48c0-0.4,0.3-0.7,0.7-0.7h3.6
			c0.4,0,0.7,0.4,0.7,0.7v25.8c0,0.4-0.4,0.7-0.7,0.7h-3.6c-0.4,0-0.7-0.4-0.7-0.7V63H74v10.8c0,0.4-0.3,0.7-0.7,0.7h-3.6
			c-0.4,0-0.7-0.4-0.7-0.7V48z"/>
		<path class="st0" d="M102.4,48c0-0.4,0.4-0.7,0.7-0.7h3.6c0.4,0,0.7,0.4,0.7,0.7v25.8c0,0.4-0.4,0.7-0.7,0.7h-3.6
			c-0.4,0-0.7-0.4-0.7-0.7V48z"/>
		<path class="st0" d="M130.3,46.8c3.9,0,6.8,1.2,9.4,3.6c0.4,0.3,0.4,0.8,0,1.1l-2.4,2.5c-0.3,0.3-0.7,0.3-1,0
			c-1.6-1.4-3.8-2.3-6-2.3c-5,0-8.7,4.2-8.7,9.1c0,4.9,3.7,9,8.7,9c2.3,0,4.3-0.9,6-2.2c0.3-0.3,0.7-0.2,1,0l2.4,2.5
			c0.3,0.3,0.2,0.8,0,1.1c-2.7,2.6-6,3.8-9.5,3.8c-7.8,0-14.1-6.2-14.1-14S122.5,46.8,130.3,46.8z"/>
		<path class="st0" d="M145.7,73.5l12.1-26.3c0.1-0.2,0.3-0.4,0.7-0.4h0.4c0.4,0,0.5,0.2,0.7,0.4l12,26.3c0.2,0.5-0.1,1-0.7,1h-3.4
			c-0.6,0-0.9-0.2-1.1-0.8l-1.9-4.2h-11.7l-1.9,4.2c-0.2,0.4-0.5,0.8-1.1,0.8h-3.4C145.7,74.6,145.4,74,145.7,73.5z M162.5,65.2
			l-3.9-8.6h-0.1l-3.8,8.6H162.5z"/>
		<path class="st0" d="M189.8,46.8c3.5,0,6.9,1.4,9.5,3.6c0.3,0.3,0.4,0.8,0,1.1l-2.4,2.5c-0.3,0.3-0.7,0.3-1,0
			c-1.7-1.5-3.7-2.3-5.9-2.3c-4.9,0-8.7,4.2-8.7,9.1c0,4.8,3.9,8.9,8.8,8.9c2.2,0,3.9-0.7,4.6-1v-3.3h-3.1c-0.4,0-0.7-0.3-0.7-0.7
			v-3.1c0-0.4,0.3-0.7,0.7-0.7h7.5c0.4,0,0.7,0.4,0.7,0.7v10c0,0.3-0.2,0.5-0.3,0.6c0,0-4,2.5-9.7,2.5c-7.8,0-14-6.2-14-14
			S182,46.8,189.8,46.8z"/>
		<path class="st0" d="M221.3,46.8c7.8,0,14.1,6.3,14.1,14.1s-6.2,14-14.1,14s-14-6.2-14-14S213.5,46.8,221.3,46.8z M221.3,69.9
			c4.9,0,9-4,9-8.9s-4.1-9-9-9s-8.9,4.1-8.9,9S216.4,69.9,221.3,69.9z"/>
		<path class="st0" d="M242.4,57.5c-0.3-0.3-0.2-0.7,0.1-0.9c0.4-0.3,2.7-2,2.7-4.8c0,0-0.5,0.2-1.2,0.2c-1.4,0-2.6-1.1-2.6-2.6
			s1.2-2.6,2.8-2.6c1.4,0,3.2,1,3.2,4.2c0,3.8-2.5,6.2-3.5,7.1c-0.3,0.2-0.6,0.3-0.9,0L242.4,57.5z"/>
		<path class="st0" d="M254.5,70.7l1.4-2.4c0.3-0.5,1-0.5,1.3-0.3c0.2,0.1,3.4,2.4,5.9,2.4c2,0,3.6-1.3,3.6-3c0-2-1.7-3.4-5-4.7
			c-3.7-1.5-7.3-3.8-7.3-8.4c0-3.5,2.6-7.5,8.8-7.5c4,0,7,2,7.8,2.6c0.4,0.2,0.5,0.9,0.2,1.3l-1.5,2.2c-0.3,0.5-0.9,0.8-1.4,0.5
			c-0.3-0.2-3.3-2.1-5.4-2.1c-2.2,0-3.4,1.5-3.4,2.7c0,1.8,1.4,3.1,4.6,4.4c3.8,1.5,8.2,3.8,8.2,8.8c0,4-3.5,7.7-9,7.7
			c-4.9,0-7.8-2.3-8.6-3C254.3,71.5,254.1,71.4,254.5,70.7z"/>
		<path class="st0" d="M305,46.8c3.5,0,6.9,1.4,9.5,3.6c0.3,0.3,0.4,0.8,0,1.1l-2.4,2.5c-0.3,0.3-0.7,0.3-1,0
			c-1.7-1.5-3.7-2.3-5.9-2.3c-4.9,0-8.7,4.2-8.7,9.1c0,4.8,3.9,8.9,8.8,8.9c2.2,0,3.9-0.7,4.6-1v-3.3h-3.1c-0.4,0-0.7-0.3-0.7-0.7
			v-3.1c0-0.4,0.3-0.7,0.7-0.7h7.5c0.4,0,0.7,0.4,0.7,0.7v10c0,0.3-0.2,0.5-0.3,0.6c0,0-4,2.5-9.7,2.5c-7.8,0-14-6.2-14-14
			S297.2,46.8,305,46.8z"/>
		<path class="st0" d="M324.6,48c0-0.4,0.4-0.7,0.7-0.7h3.6c0.4,0,0.7,0.4,0.7,0.7v25.8c0,0.4-0.4,0.7-0.7,0.7h-3.6
			c-0.4,0-0.7-0.4-0.7-0.7V48z"/>
		<path class="st0" d="M340.2,48c0-0.4,0.3-0.7,0.7-0.7h3.6c0.4,0,0.7,0.4,0.7,0.7v21.9h10c0.4,0,0.7,0.4,0.7,0.7v3.2
			c0,0.4-0.3,0.7-0.7,0.7H341c-0.4,0-0.7-0.4-0.7-0.7V48z"/>
		<path class="st0" d="M363.4,48c0-0.4,0.3-0.7,0.7-0.7h9.2c7.5,0,13.7,6.1,13.7,13.6c0,7.6-6.2,13.7-13.7,13.7h-9.2
			c-0.4,0-0.7-0.4-0.7-0.7V48z M372.9,69.8c5.1,0,8.8-3.8,8.8-8.9c0-5.1-3.7-8.9-8.8-8.9h-4.5v17.8H372.9z"/>
		<path class="st0" d="M395.8,48c0-0.4,0.3-0.7,0.7-0.7h15.9c0.4,0,0.7,0.4,0.7,0.7v3.2c0,0.4-0.3,0.7-0.7,0.7h-11.6v6.4h9.6
			c0.4,0,0.7,0.4,0.7,0.7v3.2c0,0.4-0.4,0.7-0.7,0.7h-9.6v6.8h11.6c0.4,0,0.7,0.4,0.7,0.7v3.2c0,0.4-0.3,0.7-0.7,0.7h-15.9
			c-0.4,0-0.7-0.4-0.7-0.7V48z"/>
		<path class="st0" d="M422.4,48c0-0.4,0.3-0.7,0.7-0.7h9.2c7.5,0,13.7,6.1,13.7,13.6c0,7.6-6.2,13.7-13.7,13.7h-9.2
			c-0.4,0-0.7-0.4-0.7-0.7V48z M431.9,69.8c5.1,0,8.8-3.8,8.8-8.9c0-5.1-3.7-8.9-8.8-8.9h-4.5v17.8H431.9z"/>
		<path class="st0" d="M463.3,73.5l12.1-26.3c0.1-0.2,0.3-0.4,0.7-0.4h0.4c0.4,0,0.5,0.2,0.7,0.4l12,26.3c0.2,0.5-0.1,1-0.7,1h-3.4
			c-0.6,0-0.9-0.2-1.1-0.8l-1.9-4.2h-11.7l-1.9,4.2c-0.2,0.4-0.5,0.8-1.1,0.8H464C463.4,74.6,463.1,74,463.3,73.5z M480.2,65.2
			l-3.9-8.6h-0.1l-3.8,8.6H480.2z"/>
		<path class="st0" d="M507.4,46.8c3.5,0,6.9,1.4,9.5,3.6c0.3,0.3,0.4,0.8,0,1.1l-2.4,2.5c-0.3,0.3-0.7,0.3-1,0
			c-1.7-1.5-3.7-2.3-5.9-2.3c-4.9,0-8.7,4.2-8.7,9.1c0,4.8,3.9,8.9,8.8,8.9c2.2,0,3.9-0.7,4.6-1v-3.3h-3.1c-0.4,0-0.7-0.3-0.7-0.7
			v-3.1c0-0.4,0.3-0.7,0.7-0.7h7.5c0.4,0,0.7,0.4,0.7,0.7v10c0,0.3-0.2,0.5-0.3,0.6c0,0-4,2.5-9.7,2.5c-7.8,0-14-6.2-14-14
			S499.6,46.8,507.4,46.8z"/>
		<path class="st0" d="M527,48c0-0.4,0.3-0.7,0.7-0.7h15.9c0.4,0,0.7,0.4,0.7,0.7v3.2c0,0.4-0.3,0.7-0.7,0.7h-11.6v6.4h9.6
			c0.4,0,0.7,0.4,0.7,0.7v3.2c0,0.4-0.4,0.7-0.7,0.7h-9.6v6.8h11.6c0.4,0,0.7,0.4,0.7,0.7v3.2c0,0.4-0.3,0.7-0.7,0.7h-15.9
			c-0.4,0-0.7-0.4-0.7-0.7V48z"/>
	</g>
	<g>
		<path class="st0" d="M253.1,130c0.6-0.2,1.2-0.6,1.6-1.2c0.6-0.8,1.1-2.1,1.5-3.9c0.6-2.8,1-4.5,1.1-5.2c0.1-0.5,0.4-2.2,1.1-5
			c0.2-0.9,0.4-1.6,0.4-1.9c0-0.1,0-0.2,0.1-0.3l0.9-5l1.1-5.6l0.5-2.5c0.1-0.6,0.2-1,0.2-1.3c-0.9-0.4-2.1-0.7-3.7-0.9v-0.2
			c0-0.1,0-0.2,0-0.4c0.3-0.1,0.5-0.1,0.6-0.1c0.1,0,0.4,0,0.8,0.1c0.3,0,0.6,0,0.9,0.1l2.1,0.1c2.3,0,4-0.1,5-0.2
			c0.2,0,0.3,0,0.4,0h0.2l0,0.6c-0.1,0.1-0.2,0.2-0.3,0.2l-1.4,0.2c-1,0.1-1.6,0.3-1.8,0.4c-0.1,0.3-0.3,0.7-0.3,1.2
			c-0.1,0.4-0.2,0.8-0.3,1.2l-0.2,0.6l-0.1,0.5c-0.6,3.2-1.1,5.9-1.5,7.9l-1.7,8.4c-0.5,2.2-0.9,4.1-1.5,5.9
			c-0.5,1.8-1.3,3.4-2.2,4.7c-0.7,1-1.5,1.7-2.5,2.2c-0.8,0.4-1.6,0.6-2.4,0.6c-0.5,0-1-0.1-1.5-0.3c-0.3-0.1-0.6-0.3-1-0.7
			c-0.2-0.2-0.3-0.6-0.3-1c0-0.3,0.1-0.6,0.3-0.9c0.2-0.2,0.5-0.4,0.8-0.4c0.4,0,0.7,0.1,1,0.4c0.2,0.2,0.5,0.5,0.8,1
			c0.3,0.5,0.6,0.8,0.9,0.8C252.8,130.1,252.9,130.1,253.1,130z"/>
		<path class="st0" d="M271.3,107.4c-0.4,0.2-1,0.7-1.8,1.5c-0.5,0.4-1,0.9-1.4,1.3c-0.3,0.3-0.5,0.6-0.6,0.7l-0.6-0.1
			c0.2-0.4,0.8-1.1,1.8-2.1c1-1,2-1.9,3-2.4c0.5-0.3,0.9-0.4,1.4-0.4c0.2,0,0.5,0.1,0.6,0.3c0.2,0.2,0.3,0.4,0.3,0.6
			c0,0.3-0.1,0.6-0.3,1.1c0,0.1-0.1,0.3-0.3,0.6c-0.6,1.3-1.7,3.6-3.3,6.8c-1.4,2.7-2.1,4.3-2.1,4.7l0,0.1c0.3-0.1,0.8-0.3,1.3-0.8
			c1.7-1.4,2.9-2.6,3.8-3.5c0.1-0.1,0.4-0.4,0.9-0.9c1.4-1.5,2.6-2.9,3.6-4.3c0.6-0.8,1.4-2.3,2.4-4.5c0.4,0,0.7,0,0.9,0
			c0.3,0,0.5,0.1,0.7,0.3c-0.3,0.8-0.8,2.1-1.5,3.9l-3.5,8.8c-0.2,0.5-0.4,0.9-0.4,1.3l0.1,0c0.1,0,0.3-0.1,0.6-0.4
			c0.7-0.7,1.4-1.3,1.8-2c0.2-0.3,0.4-0.6,0.6-0.7l0.6,0.1c-0.6,1.2-1.6,2.4-3.1,3.8c-0.8,0.7-1.4,1.1-1.9,1.1c-0.2,0-0.4,0-0.6-0.1
			c-0.2-0.2-0.3-0.5-0.3-0.7c0-0.6,0.3-1.6,0.8-2.8l2.7-6.3c0.1-0.1,0.1-0.3,0.2-0.4c-0.2,0.3-0.7,0.8-1.5,1.7
			c-1.8,2.1-3.4,3.8-4.7,5s-2.7,2.3-4.2,3.1c-0.4,0.2-0.7,0.3-1.1,0.3c-0.2,0-0.3-0.1-0.4-0.2c-0.1-0.1-0.2-0.3-0.2-0.5
			c0-0.2,0-0.5,0.1-0.8c0.2-0.6,0.6-1.5,1.1-2.5l3.3-6.4l1.3-2.8c0.2-0.4,0.4-0.7,0.4-0.8C271.5,107.7,271.4,107.6,271.3,107.4z"/>
		<path class="st0" d="M289.4,96.8l0.1-0.6c1.6-0.1,2.7-0.2,3.5-0.2h0.8v0.3l-0.6,1.8c0,0.1-0.5,1.2-1.4,3.5l-2.6,6.7
			c-0.5,1.3-1.2,3.2-2.3,5.8l-0.6,1.7c-0.4,1.2-0.8,2-1.1,2.4c-0.4,0.7-0.6,1.2-0.6,1.5l0.1,0.3c0.4,0,0.9-0.3,1.5-0.9
			c0.9-0.8,1.7-1.7,2.4-2.9c0.2-0.1,0.4-0.1,0.5-0.1l0.2,0c-0.5,0.9-1,1.7-1.5,2.3c-0.9,0.9-1.5,1.5-1.8,1.7c-0.7,0.6-1.4,1-2.1,1.3
			c-0.4,0.2-0.8,0.3-1.3,0.3c-0.2,0-0.4-0.1-0.5-0.2c-0.1-0.1-0.2-0.3-0.2-0.4c0-0.6,1-3.2,3-7.9c0.6-1.4,1.3-3,1.9-4.8
			c1.2-3.2,2.1-5.4,2.7-6.8c0.6-1.3,1.1-2.6,1.4-3.6c0-0.1,0-0.2,0-0.3c0-0.2-0.1-0.4-0.3-0.5C290.8,97.2,290.3,97,289.4,96.8z"/>
		<path class="st0" d="M283.6,129.3c0.3,0.3,0.5,0.5,0.7,0.6c0.2,0.1,0.5,0.1,1,0.1c0.7,0,1.5-0.2,2.4-0.6c0.9-0.4,1.6-0.8,2-1.2
			c0.8-0.5,1.8-1.4,2.8-2.6c0.6-0.7,1.1-1.5,1.5-2.5c0.4-1,0.7-2.3,0.9-3.9c0.2-1.6,0.3-2.9,0.3-4.1c0-0.7,0-1.9-0.1-3.6
			c-0.1-1.2-0.2-2-0.3-2.5c-0.1-0.4-0.3-0.8-0.5-1c-0.1-0.1-0.3-0.2-0.4-0.2c-0.3,0-0.5,0.1-0.8,0.4c-0.4,0.5-0.9,1.6-1.3,3.1
			l-0.2,0c-0.1,0-0.3-0.1-0.5-0.2c0.4-1.7,0.8-2.7,1-3.1c0.4-0.8,0.7-1.4,1-1.7c0.2-0.2,0.5-0.4,0.9-0.6c0.2,0,0.4,0,0.5,0
			c0.7,0,1.3,0.5,1.8,1.4c0.6,1.3,0.9,3.1,0.9,5.4c0,1-0.1,2.3-0.2,3.8c-0.1,1.5-0.3,2.7-0.5,3.4c-0.2,1-0.3,1.7-0.4,1.9
			c0.1-0.1,0.1-0.2,0.2-0.3c0.8-1.2,1.5-2.4,2.1-3.5c0.5-0.8,0.9-1.8,1.2-3s0.7-2.4,0.9-3.6c0.1-0.7,0.2-1.5,0.2-2.4
			c0-0.3,0-0.6,0-0.8c0-0.3,0-0.5,0-0.6c0-0.6,0.1-1.1,0.4-1.4c0.1-0.2,0.3-0.3,0.7-0.3s0.6,0.1,0.7,0.3c0.2,0.2,0.2,0.5,0.2,0.9
			c0,0.6-0.4,2.1-1.1,4.6c-1,3.4-2,5.9-3.1,7.8c-1.6,2.8-3.4,5.2-5.5,7.4c-1.4,1.4-2.9,2.5-4.4,3.2c-1.5,0.7-2.9,1-4,1
			c-1.5,0-2.6-0.2-3.1-0.6c-0.6-0.4-0.8-0.8-0.8-1.2c0-0.3,0.1-0.5,0.3-0.7c0.2-0.2,0.4-0.3,0.7-0.3c0.4,0,0.7,0.1,1.1,0.3
			C282.9,128.6,283.2,128.9,283.6,129.3z"/>
		<path class="st0" d="M317.7,121.4l6.1-20.9c-2,1.5-4.1,2.7-6.3,3.6l-0.1-1.1c3.9-1.8,6.9-3.9,8.9-6.3h1.3l-7.2,24.7H317.7z"/>
		<path class="st0" d="M339.6,113h20v1.8h-20V113z"/>
		<path class="st0" d="M370.9,116.3c0.2,0,0.4,0,0.6,0.1c0.1,1.8,0.6,3.1,1.5,4.1c0.6,0.4,1.4,0.7,2.2,0.7l0.7,0
			c0.8,0,1.6-0.1,2.4-0.4s1.4-0.6,1.8-1c0.5-0.5,0.9-1.2,1.4-2.2c0.2-0.4,0.3-1,0.3-1.7c0-0.4,0-0.8-0.1-1c-0.1-0.5-0.3-1.1-0.6-1.8
			c-0.3-0.7-0.6-1.5-1.1-2.4l-1.8-3.8c-0.3-0.7-0.6-1.5-1-2.7c-0.2-0.5-0.2-1.1-0.2-1.9c0-1,0.2-1.9,0.6-2.7c0.4-0.8,1-1.5,1.8-2.1
			c0.8-0.6,1.5-1,2.1-1.2c0.8-0.3,1.7-0.4,2.7-0.4c1.8,0,3.6,0.4,5.4,1.1c0,0.7-0.1,1.4-0.3,2c-0.2,0.8-0.4,1.5-0.7,2.1
			c-0.2,0-0.5,0-0.6-0.1c0-0.7-0.2-1.5-0.5-2.5c-0.2-0.5-0.5-1-1.1-1.4c-0.6-0.4-1.2-0.6-2-0.6c-1.4,0-2.6,0.4-3.4,1.3
			c-0.9,0.9-1.3,2-1.3,3.4c0,0.8,0.1,1.6,0.3,2.3s0.9,2.2,2,4.4c0.5,1.1,1,2,1.2,2.7c0.1,0.1,0.2,0.7,0.5,1.6
			c0.3,0.9,0.5,1.5,0.5,1.7c0.1,0.4,0.1,0.8,0.1,1.2c0,1.8-0.6,3.2-1.9,4.3c-1.7,1.4-4,2.2-6.9,2.2c-1.8,0-3.6-0.3-5.4-0.9V121
			c0-0.2,0.1-0.7,0.2-1.4c0.1-0.3,0.2-1,0.3-2.3C370.8,117.1,370.8,116.7,370.9,116.3z"/>
		<path class="st0" d="M393.2,114.5c-0.4,1.2-0.6,2.3-0.6,3.5c0,0.9,0.2,1.6,0.6,2.1c0.3,0.4,0.6,0.5,1.1,0.5c0.3,0,0.5-0.1,0.7-0.2
			c0.5-0.2,0.9-0.5,1.2-0.9c0.3-0.3,0.7-0.8,1.1-1.3s0.7-1.1,0.9-1.8h0.3c0.2,0,0.3,0,0.5,0c-0.4,1.4-1.3,2.8-2.8,4.2
			c-0.9,0.8-1.9,1.3-2.9,1.3c-0.7,0-1.2-0.3-1.7-0.9c-0.6-0.8-0.9-1.9-0.9-3.3c0-0.6,0.1-1.3,0.3-2.2c0.2-0.9,0.4-1.6,0.6-2.1
			c0.4-0.9,0.8-1.7,1.3-2.5l1.5-2.1c1-1,1.5-1.6,1.6-1.7c0.4-0.4,0.9-0.7,1.3-0.9c0.5-0.2,0.9-0.3,1.4-0.3c0.6,0,1.2,0.3,1.6,0.8
			c0.5,0.5,0.7,1.2,0.7,2c0,0.7-0.2,1.4-0.5,2.1c-0.4,0.7-0.8,1.2-1.2,1.5l-1.6,1c-0.2,0.1-0.7,0.3-1.4,0.5
			C395.5,114,394.5,114.3,393.2,114.5z M393.6,113.6c0.4,0,1-0.1,1.9-0.5c0.5-0.2,1.1-0.5,1.9-1c0.3-0.2,0.7-0.5,1-1
			c0.4-0.5,0.7-1,0.9-1.5s0.3-1.1,0.3-1.6c0-0.4-0.1-0.7-0.3-0.9c-0.2-0.2-0.5-0.4-0.7-0.4c-0.3,0-0.8,0.2-1.2,0.6
			c-0.8,0.7-1.6,1.8-2.5,3.4C394.2,111.8,393.8,112.8,393.6,113.6z"/>
		<path class="st0" d="M395.1,130.6c0.5-0.1,1.1-0.2,1.8-0.3c0.4,0,0.7-0.1,0.8-0.1c0.2-0.1,0.4-0.1,0.6-0.1
			c0.2-0.1,0.3-0.2,0.4-0.2c0.1-0.2,0.3-0.5,0.5-1l1.9-5c0.3-0.6,0.5-1.4,0.8-2.2c0.2-0.5,0.3-1,0.5-1.4c0.2-0.5,0.3-0.8,0.3-0.9
			c0.1-0.3,0.1-0.5,0.2-0.6l1.8-4.9c0.1-0.2,0.5-1.6,1.4-4.2c0.3-0.8,0.5-1.6,0.7-2.4c-0.9,0.2-1.7,0.3-2.4,0.5
			c-0.1,0-0.3,0.1-0.6,0.2c-0.5,0.2-0.8,0.3-0.9,0.3c-0.1,0-0.3,0-0.5-0.1l0-0.2c0-0.2,0.1-0.3,0.3-0.5c0.6-0.4,2.1-0.8,4.4-1.3
			c0.6-1.6,1-2.7,1.1-3.2c0.2-0.8,0.4-1.3,0.7-1.6c0.2,0,0.3,0,0.5,0c0.2,0,0.4,0,0.8,0c0.2,0.2,0.3,0.4,0.3,0.6l-0.1,0.3
			c0,0.1-0.1,0.4-0.2,0.9c-0.1,0.3-0.2,0.7-0.4,1.1c-0.3,0.9-0.5,1.4-0.6,1.7c0.6,0,0.9-0.1,1.1-0.1c0.2,0,0.5,0,0.9,0h0.1
			c0.7,0,1.4,0.2,2.1,0.5c1,0.5,1.8,1.2,2.2,2s0.7,1.9,0.7,3c0,0.9-0.2,1.8-0.5,2.7s-0.8,2-1.5,3s-1.4,1.8-2.3,2.5s-1.6,1.1-2.3,1.4
			c-1.5,0.5-2.5,0.8-3,0.8c-0.4,0-0.8-0.1-1.2-0.2c-0.4-0.1-0.9-0.3-1.4-0.5c-0.5,1-1.4,3.2-2.5,6.6c-0.2,0.7-0.4,1.2-0.6,1.5
			s-0.2,0.6-0.2,0.8l0,0.2l0.2,0.2c0.3,0.1,0.8,0.2,1.2,0.2c0.5,0,0.9,0.1,1.2,0.1c0.1,0.1,0.1,0.1,0.2,0.1l0.1,0.3
			c0,0.1,0,0.1-0.1,0.2c-0.5,0-0.9,0-1.1,0c-0.2,0-0.3,0-0.4,0l-0.5,0l-3.5-0.1c-0.6,0-1.1,0-1.5,0.1c-0.4,0-0.8,0-1.1,0H395l0-0.1
			C395,130.9,395,130.8,395.1,130.6z M410.9,118.8c1.2-1.3,2-2.6,2.5-4c0.5-1.4,0.8-2.5,0.8-3.6c0-0.6-0.1-1.3-0.3-2
			c-0.1-0.4-0.3-0.7-0.5-1c-0.4-0.4-0.8-0.7-1.1-0.9c-0.6-0.3-1.4-0.4-2.3-0.4c-0.3,0-0.6,0-1,0.1c-0.8,2.6-1.5,4.7-2.1,6.1
			l-1.6,4.6c-0.1,0.4-0.2,0.7-0.3,1.1c0,0.2-0.1,0.4-0.1,0.6c0,0.4,0.1,0.7,0.4,0.9c0.4,0.3,0.9,0.4,1.6,0.4c0.6,0,1.2-0.1,1.7-0.4
			C409,120.2,409.8,119.7,410.9,118.8z"/>
		<path class="st0" d="M423.4,107.5h-1.2l-0.5,0l-1.2,0h-0.2c0-0.3,0.1-0.6,0.3-1c1.9,0,3-0.1,3.3-0.1c0.2-0.6,0.5-1.1,0.6-1.5
			c0.4-0.8,0.8-1.8,1.2-2.9c0.1-0.4,0.3-0.7,0.4-1c0.3,0,0.6-0.1,1-0.1c0.3,0,0.6,0,0.9,0.1l0,0.3c0,0.2-0.6,1.6-1.7,4.2
			c-0.1,0.3-0.2,0.6-0.3,0.9c0.4,0.1,0.6,0.1,0.6,0.1h0.4l0.6,0l1.8,0c0,0.4-0.1,0.8-0.2,1c-0.5,0.1-1.2,0.1-2,0.1
			c-0.4,0-0.7,0-0.8,0c-0.6,0.1-1,0.1-1.1,0.2l-3.1,7.4c-0.3,0.7-0.9,2.1-1.8,4.1c0,0.1,0,0.2,0.1,0.3l0.2,0c0.3,0,0.8-0.2,1.3-0.6
			c1.1-1,2.1-2.1,3.1-3.3c0.2,0.1,0.4,0.2,0.6,0.4c-1.3,1.5-2.1,2.6-2.6,3s-1.2,1-1.9,1.5s-1.3,0.8-1.4,0.9
			c-0.3,0.1-0.6,0.2-0.9,0.2c-0.3,0-0.5-0.1-0.7-0.2c-0.1-0.1-0.2-0.3-0.2-0.6c0-0.4,0.3-1.2,0.9-2.6l0.8-1.8l2.8-6.8
			C422.9,109,423.2,108.2,423.4,107.5z"/>
		<path class="st0" d="M430.7,114.5c-0.4,1.2-0.6,2.3-0.6,3.5c0,0.9,0.2,1.6,0.6,2.1c0.3,0.4,0.6,0.5,1.1,0.5c0.3,0,0.5-0.1,0.7-0.2
			c0.5-0.2,0.9-0.5,1.2-0.9c0.3-0.3,0.7-0.8,1.1-1.3s0.7-1.1,0.9-1.8h0.3c0.2,0,0.3,0,0.5,0c-0.4,1.4-1.3,2.8-2.8,4.2
			c-0.9,0.8-1.9,1.3-2.9,1.3c-0.7,0-1.2-0.3-1.7-0.9c-0.6-0.8-0.9-1.9-0.9-3.3c0-0.6,0.1-1.3,0.3-2.2c0.2-0.9,0.4-1.6,0.6-2.1
			c0.4-0.9,0.8-1.7,1.3-2.5l1.5-2.1c1-1,1.5-1.6,1.6-1.7c0.4-0.4,0.9-0.7,1.3-0.9c0.5-0.2,0.9-0.3,1.4-0.3c0.6,0,1.2,0.3,1.6,0.8
			c0.5,0.5,0.7,1.2,0.7,2c0,0.7-0.2,1.4-0.5,2.1c-0.4,0.7-0.8,1.2-1.2,1.5l-1.6,1c-0.2,0.1-0.7,0.3-1.4,0.5
			C432.9,114,431.9,114.3,430.7,114.5z M431,113.6c0.4,0,1-0.1,1.9-0.5c0.5-0.2,1.1-0.5,1.9-1c0.3-0.2,0.7-0.5,1-1
			c0.4-0.5,0.7-1,0.9-1.5s0.3-1.1,0.3-1.6c0-0.4-0.1-0.7-0.3-0.9c-0.2-0.2-0.5-0.4-0.7-0.4c-0.3,0-0.8,0.2-1.2,0.6
			c-0.8,0.7-1.6,1.8-2.5,3.4C431.7,111.8,431.2,112.8,431,113.6z"/>
		<path class="st0" d="M445.3,107.7l-0.3-0.1c-0.2,0-0.6,0.2-1.1,0.6c-0.9,0.7-1.6,1.4-2.3,2.2c-0.1,0.2-0.3,0.3-0.4,0.5
			c-0.2,0-0.5-0.1-0.7-0.1c0.4-0.6,0.8-1.2,1.2-1.6c0.9-0.9,1.5-1.5,1.9-1.8c0.7-0.5,1.4-1,2-1.2c0.3-0.1,0.6-0.2,1-0.2
			c0.3,0,0.5,0.1,0.7,0.2c0.2,0.2,0.3,0.3,0.3,0.5c0,0.4-0.7,2.1-2.2,5c-0.4,0.8-0.7,1.4-0.8,1.7c0.7-0.7,1.6-1.7,2.7-3
			c0.8-0.9,1.8-2,3.1-3.1c0.5-0.4,1.1-0.8,1.7-1c0.6-0.2,1.2-0.4,1.6-0.4c0.3,0,0.6,0.1,0.9,0.3c0.2,0.2,0.2,0.4,0.2,0.7
			c0,1.1-0.7,3-2.2,5.7l-0.9,1.7l-0.1,0.3l1.9-2.3c0.6-0.7,1-1.1,1.2-1.3c0.4-0.4,0.7-0.7,0.9-0.9c1.1-1.3,2.2-2.3,3.3-3
			c1.2-0.7,2.1-1,2.7-1c0.3,0,0.5,0.1,0.7,0.3c0.2,0.2,0.3,0.5,0.3,0.9c0,0.3,0,0.5-0.1,0.7c-0.1,0.4-0.3,1-0.6,1.7
			c0,0.1-0.6,1.1-1.7,3c-0.6,1.1-1.1,2-1.4,2.5l-1,1.5c-0.5,0.8-0.8,1.3-1.1,1.6c-0.7,0.7-1.1,1.3-1.1,1.8c0,0.1,0,0.1,0.1,0.2
			c0.1,0,0.3-0.1,0.7-0.4c0.8-0.5,1.8-1.3,3-2.4l0.6,0.2c-0.6,1-1.6,2-3,2.9c-1.4,0.9-2.6,1.4-3.7,1.4c-0.3,0-0.5-0.1-0.7-0.3
			c0-0.2,0-0.3,0.1-0.4c0.1-0.1,0.3-0.5,0.6-1l3.2-5.1c1.7-2.8,2.7-4.5,3-5.3c0.5-1.1,0.7-1.8,0.7-1.9c0-0.1,0-0.3-0.1-0.4
			c-0.1-0.1-0.2-0.1-0.3-0.1c-0.2,0-0.4,0.1-0.7,0.2c-0.7,0.4-1.6,1.1-2.6,2.2c-1.9,2.1-3.4,3.7-4.4,4.9c-1.6,1.9-3,4-4.1,6
			c-0.3,0.5-0.6,0.9-0.9,1.2c-0.3,0-0.6,0.1-0.8,0.1c-0.4,0-0.7,0-1-0.1c0-0.2,0.2-0.6,0.5-1.1c0.6-1,1.6-2.7,2.9-5.2
			c1.3-2.5,2.2-4.1,2.6-5c0.4-0.9,0.7-1.5,0.8-2c0-0.1,0.1-0.3,0.1-0.4c0-0.2-0.1-0.4-0.2-0.6c-0.1-0.1-0.2-0.2-0.3-0.2
			c-0.2,0-0.5,0.1-0.9,0.3c-0.6,0.3-1.4,1-2.5,2.2c-1.8,1.9-2.9,3.1-3.1,3.4c-1.6,2-2.7,3.6-3.5,4.9c0,0.1-0.3,0.5-0.7,1.3
			s-0.8,1.3-0.9,1.6c-0.2,0.3-0.4,0.6-0.7,0.8c-0.3,0-0.6,0.1-0.8,0.1c-0.2,0-0.3,0-0.5-0.1l-0.1-0.3c0-0.2,0.1-0.4,0.3-0.8
			c0.1-0.1,1.1-2.1,3.1-6l3.4-6.6C445.3,108,445.3,107.9,445.3,107.7z"/>
		<path class="st0" d="M470.7,97.4c-0.3-0.2-0.9-0.3-1.5-0.3h-0.3l0-0.6c0.4-0.1,1.1-0.1,2.1-0.2c0.2,0,1,0,2.4-0.1
			c0,0.2-0.4,1.4-1.2,3.7l-1.4,4.5c-0.1,0.5-0.5,1.5-1,3l-2.1,6.8l2.7-3.6c1.6-1.9,2.5-2.9,2.8-3.2c0.7-0.6,1.3-1,1.8-1.2
			c0.5-0.2,1-0.3,1.4-0.3c0.5,0,0.9,0.2,1.3,0.7c0.5,0.6,0.7,1.3,0.7,2.1c0,1.7-0.4,3.4-1.3,5.2c-0.8,1.8-2,3.4-3.5,4.9
			c-1,1-2.4,1.9-4.3,2.7c-1.1,0.5-1.9,0.7-2.6,0.7c-0.7,0-1.3-0.2-1.7-0.6c-0.4-0.4-0.6-0.9-0.6-1.4c0-0.7,0.1-1.5,0.4-2.4l1-3.5
			l3.7-11.3c0.4-1.4,0.9-2.6,1.2-3.7c0.2-0.4,0.2-0.8,0.2-1C471,97.8,470.9,97.6,470.7,97.4z M467.6,121.2c0.4,0,0.8-0.1,1.3-0.4
			c0.9-0.5,1.8-1.4,2.9-2.6c1.1-1.3,1.8-2.2,2.2-2.9c0.8-1.4,1.5-2.8,2-4.1c0.4-1,0.6-1.9,0.6-2.7c0-0.4-0.1-0.6-0.3-0.9
			c-0.2-0.2-0.5-0.3-0.9-0.3c-0.4,0-0.7,0.1-1.1,0.4c-0.8,0.5-1.7,1.4-2.8,2.7c-1.7,2.1-2.8,3.5-3.4,4.4c-0.5,0.8-0.9,1.8-1.2,2.9
			c-0.3,1.1-0.5,1.8-0.5,2.2c0,0.4,0.1,0.7,0.4,1S467.2,121.2,467.6,121.2z"/>
		<path class="st0" d="M482.3,114.5c-0.4,1.2-0.6,2.3-0.6,3.5c0,0.9,0.2,1.6,0.6,2.1c0.3,0.4,0.6,0.5,1.1,0.5c0.3,0,0.5-0.1,0.7-0.2
			c0.5-0.2,0.9-0.5,1.2-0.9c0.3-0.3,0.7-0.8,1.1-1.3s0.7-1.1,0.9-1.8h0.3c0.2,0,0.3,0,0.5,0c-0.4,1.4-1.3,2.8-2.8,4.2
			c-0.9,0.8-1.9,1.3-2.9,1.3c-0.7,0-1.2-0.3-1.7-0.9c-0.6-0.8-0.9-1.9-0.9-3.3c0-0.6,0.1-1.3,0.3-2.2c0.2-0.9,0.4-1.6,0.6-2.1
			c0.4-0.9,0.8-1.7,1.3-2.5l1.5-2.1c1-1,1.5-1.6,1.6-1.7c0.4-0.4,0.9-0.7,1.3-0.9c0.5-0.2,0.9-0.3,1.4-0.3c0.6,0,1.2,0.3,1.6,0.8
			c0.5,0.5,0.7,1.2,0.7,2c0,0.7-0.2,1.4-0.5,2.1c-0.4,0.7-0.8,1.2-1.2,1.5l-1.6,1c-0.2,0.1-0.7,0.3-1.4,0.5
			C484.6,114,483.6,114.3,482.3,114.5z M482.7,113.6c0.4,0,1-0.1,1.9-0.5c0.5-0.2,1.1-0.5,1.9-1c0.3-0.2,0.7-0.5,1-1
			c0.4-0.5,0.7-1,0.9-1.5s0.3-1.1,0.3-1.6c0-0.4-0.1-0.7-0.3-0.9c-0.2-0.2-0.5-0.4-0.7-0.4c-0.3,0-0.8,0.2-1.2,0.6
			c-0.8,0.7-1.6,1.8-2.5,3.4C483.3,111.8,482.9,112.8,482.7,113.6z"/>
		<path class="st0" d="M495.4,107.4c-0.4,0.3-0.8,0.7-1.2,1.1c-0.1,0.1-0.7,0.9-1.7,2.3l-0.8,0c0.3-0.7,0.9-1.5,1.8-2.5
			c0.9-1,1.6-1.7,2.2-2.1c0.4-0.2,0.9-0.4,1.4-0.4c0.3,0.1,0.5,0.2,0.7,0.4c0.1,0.2,0.2,0.3,0.2,0.5s0,0.4-0.1,0.6
			c-0.1,0.7-0.4,1.7-0.8,3s-0.8,2.3-1.1,3.1l-1,2.3l-0.1,0.3c0.2-0.3,0.5-1,1.1-2c2.1-3.9,3.6-6.3,4.5-7.3c0.7-0.7,1.5-1,2.4-1
			c0.5,0,1,0.2,1.4,0.6c0.3,0.3,0.5,0.7,0.5,1.3c0,0.6-0.2,1.1-0.6,1.5c-0.3,0.3-0.6,0.4-1.1,0.4c-0.4,0-0.7-0.1-0.8-0.3
			c-0.2-0.2-0.3-0.6-0.3-1.4c-0.2-0.3-0.3-0.5-0.6-0.5s-0.4,0.1-0.6,0.3c-0.6,0.5-1.8,2.3-3.5,5.2c-1.7,2.9-2.8,5-3.2,6.1
			c-0.4,1.1-0.8,1.9-1,2.4c-0.1,0.2-0.4,0.3-0.8,0.3c-0.3,0-0.6-0.1-0.7-0.2c-0.1-0.1-0.2-0.3-0.2-0.5c0-0.3,0.1-0.5,0.2-0.9
			c0.5-1.3,1.4-3.8,2.6-7.4l1.3-4.1c0.1-0.4,0.2-0.6,0.2-0.7l0.1-0.3C495.7,107.8,495.6,107.6,495.4,107.4z"/>
		<path class="st0" d="M519.6,101.2l-0.8-0.3c0.4-1.2,1.1-2.2,2.1-3c1-0.8,2.1-1.1,3.3-1.1c1.3,0,2.3,0.3,3,1c0.7,0.6,1,1.4,1,2.4
			c0,0.6-0.2,1.2-0.5,1.8s-0.8,1.1-1.4,1.5c-0.3,0.2-1.4,1-3.5,2.5c1.3,0.3,2.3,0.8,2.9,1.5s0.9,1.6,0.9,2.6c0,1.7-0.6,3.5-1.8,5.4
			c-1.2,2-3,3.5-5.3,4.7c-2.3,1.2-4.6,1.8-7,1.8c-0.3,0-0.6,0-1.1,0l0.2-0.8c1.6,0,3.1-0.3,4.6-0.8c1.5-0.6,2.8-1.3,4-2.4
			s2.1-2.2,2.8-3.5c0.7-1.3,1-2.5,1-3.6c0-0.9-0.3-1.7-0.8-2.2c-0.5-0.5-1.1-0.8-1.9-0.8c-0.5,0-1.1,0.2-1.8,0.6
			c-1,0.5-1.7,1-2.2,1.4c-0.3-0.3-0.5-0.5-0.5-0.7c0.8-0.7,1.7-1.3,2.9-2.1c1.7-1,2.9-1.8,3.4-2.3c0.8-0.7,1.4-1.4,1.8-2.1
			c0.4-0.7,0.6-1.5,0.6-2.2c0-0.6-0.2-1-0.6-1.4c-0.4-0.4-0.9-0.6-1.6-0.6c-0.7,0-1.4,0.2-2.1,0.7
			C520.6,99.4,520.1,100.2,519.6,101.2z"/>
		<path class="st0" d="M531,113.3c0-2.5,0.6-5.2,1.8-7.9c1.4-3.3,3-5.6,4.6-6.9c1.7-1.3,3.3-1.9,5-1.9c1.4,0,2.6,0.5,3.4,1.6
			c1.1,1.4,1.6,3.6,1.6,6.6c0,3.4-0.9,6.8-2.6,10.2c-1.1,2.1-2.5,3.9-4.3,5.2c-1.3,1-2.7,1.6-4,1.6c-1.4,0-2.6-0.6-3.5-1.8
			C531.6,118.4,531,116.2,531,113.3z M533.5,115.9c0,1.9,0.3,3.3,0.8,4c0.5,0.7,1.2,1,2,1c1.2,0,2.2-0.5,3.1-1.6
			c1.4-1.5,2.7-4.6,4.1-9.1c1.1-3.6,1.6-6.5,1.6-8.4c0-1.5-0.3-2.6-1-3.4c-0.4-0.6-1.1-0.8-1.9-0.8c-1.3,0-2.5,0.6-3.6,1.9
			c-1.4,1.6-2.7,4.4-3.8,8.4C533.9,111.1,533.5,113.8,533.5,115.9z"/>
	</g>
</g>
<g>
</g>
<g>
</g>
<g>
</g>
<g>
</g>
<g>
</g>
<g>
</g>
</svg>
