<svg id="Layer_1" data-name="Layer 1" xmlns="http://www.w3.org/2000/svg" viewBox="0 0 546.19 131.24"><defs><style>.cls-1{fill:#fff;}</style></defs><title>Sargent_lockup_corrected</title><path class="cls-1" d="M.2,24.28l2-2.07a.75.75,0,0,1,1.17,0A3.43,3.43,0,0,0,6,23.5c1.52,0,3.12-1.25,3.12-3.94V1.13A.74.74,0,0,1,9.84.39h3.67a.74.74,0,0,1,.74.74V19.56c0,5.42-3.63,8.54-8.19,8.54A7.46,7.46,0,0,1,.13,25.25.81.81,0,0,1,.2,24.28Z"/><path class="cls-1" d="M36.54,0a14.05,14.05,0,1,1,0,28.1,13.92,13.92,0,0,1-14-14A14,14,0,0,1,36.54,0Zm0,23a9,9,0,1,0-8.94-8.94A9,9,0,0,0,36.54,23Z"/><path class="cls-1" d="M59.37,1.13a.77.77,0,0,1,.75-.74h3.63a.74.74,0,0,1,.74.74V11.48H77.21V1.13A.74.74,0,0,1,78,.39h3.59a.77.77,0,0,1,.75.74V27a.77.77,0,0,1-.75.74H78a.74.74,0,0,1-.74-.74V16.2H64.49V27a.74.74,0,0,1-.74.74H60.12a.77.77,0,0,1-.75-.74Z"/><path class="cls-1" d="M92.9.7a.73.73,0,0,1,.74-.7h1l16.24,17.25h0V1.13a.74.74,0,0,1,.74-.74h3.59a.77.77,0,0,1,.74.74V27.4a.73.73,0,0,1-.74.7h-.94L98,10.19h0V27a.75.75,0,0,1-.75.74H93.64A.77.77,0,0,1,92.9,27Z"/><path class="cls-1" d="M137,23.89l1.41-2.42a.91.91,0,0,1,1.33-.28c.19.12,3.35,2.42,5.89,2.42,2,0,3.55-1.32,3.55-3,0-2-1.68-3.36-4.95-4.69-3.67-1.48-7.34-3.82-7.34-8.43C136.93,4,139.5,0,145.71,0a13.72,13.72,0,0,1,7.81,2.62,1,1,0,0,1,.23,1.28l-1.48,2.23a1,1,0,0,1-1.37.47c-.31-.2-3.28-2.15-5.42-2.15S142,5.93,142,7.18c0,1.84,1.45,3.09,4.61,4.37,3.78,1.53,8.15,3.79,8.15,8.83,0,4-3.47,7.72-9,7.72a12.57,12.57,0,0,1-8.59-3C136.89,24.71,136.69,24.51,137,23.89Z"/><path class="cls-1" d="M163.47,1.13a.77.77,0,0,1,.74-.74h3.63a.77.77,0,0,1,.74.74V27a.77.77,0,0,1-.74.74h-3.63a.77.77,0,0,1-.74-.74Z"/><path class="cls-1" d="M179.12.7a.73.73,0,0,1,.74-.7h1l16.23,17.25h0V1.13a.74.74,0,0,1,.74-.74h3.6a.77.77,0,0,1,.74.74V27.4a.73.73,0,0,1-.74.7h-.94L184.19,10.19h0V27a.74.74,0,0,1-.74.74h-3.55a.77.77,0,0,1-.74-.74Z"/><path class="cls-1" d="M224.94,0a14.81,14.81,0,0,1,9.53,3.63.75.75,0,0,1,0,1.09l-2.41,2.54a.68.68,0,0,1-1,0,8.77,8.77,0,0,0-14.64,6.79A8.89,8.89,0,0,0,225.22,23a12,12,0,0,0,4.64-1V18.7h-3.12A.71.71,0,0,1,226,18V14.91a.71.71,0,0,1,.74-.74h7.49a.73.73,0,0,1,.7.74v10a.76.76,0,0,1-.31.63,19.76,19.76,0,0,1-9.68,2.53,14,14,0,0,1,0-28.06Z"/><path class="cls-1" d="M244.57,1.13a.75.75,0,0,1,.75-.74H261.2a.74.74,0,0,1,.74.74v3.2a.74.74,0,0,1-.74.74H249.65v6.41h9.64a.77.77,0,0,1,.74.74v3.24a.74.74,0,0,1-.74.74h-9.64V23H261.2a.74.74,0,0,1,.74.74V27a.74.74,0,0,1-.74.74H245.32a.75.75,0,0,1-.75-.74Z"/><path class="cls-1" d="M271.19,1.13a.74.74,0,0,1,.74-.74H283.1a8.46,8.46,0,0,1,8.51,8.39,8.62,8.62,0,0,1-5.78,7.89l5.35,9.91a.74.74,0,0,1-.67,1.13h-4.09a.66.66,0,0,1-.63-.35L280.6,17h-4.33V27a.77.77,0,0,1-.74.74h-3.6a.74.74,0,0,1-.74-.74Zm11.48,11.71a4,4,0,0,0,3.86-4,3.88,3.88,0,0,0-3.86-3.79h-6.36v7.77Z"/><path class="cls-1" d="M311.24,23.89l1.4-2.42a.91.91,0,0,1,1.33-.28c.2.12,3.36,2.42,5.89,2.42,2,0,3.56-1.32,3.56-3,0-2-1.68-3.36-5-4.69-3.67-1.48-7.34-3.82-7.34-8.43C311.12,4,313.7,0,319.9,0a13.72,13.72,0,0,1,7.81,2.62,1,1,0,0,1,.23,1.28l-1.48,2.23a1,1,0,0,1-1.37.47c-.31-.2-3.28-2.15-5.42-2.15s-3.44,1.48-3.44,2.73c0,1.84,1.45,3.09,4.61,4.37,3.79,1.53,8.16,3.79,8.16,8.83,0,4-3.48,7.72-9,7.72a12.57,12.57,0,0,1-8.59-3C311.08,24.71,310.89,24.51,311.24,23.89Z"/><path class="cls-1" d="M334.19,26.7,346.33.43A.7.7,0,0,1,347,0h.39a.66.66,0,0,1,.66.43l12,26.27a.69.69,0,0,1-.67,1H356a1.13,1.13,0,0,1-1.14-.78L353,22.72H341.29l-1.91,4.21a1.18,1.18,0,0,1-1.13.78h-3.4A.68.68,0,0,1,334.19,26.7Zm16.86-8.32-3.9-8.58H347l-3.83,8.58Z"/><path class="cls-1" d="M367.29,1.13A.74.74,0,0,1,368,.39h11.16a8.46,8.46,0,0,1,8.51,8.39,8.62,8.62,0,0,1-5.78,7.89l5.35,9.91a.74.74,0,0,1-.66,1.13h-4.1a.67.67,0,0,1-.63-.35L376.69,17h-4.33V27a.77.77,0,0,1-.74.74H368a.74.74,0,0,1-.74-.74Zm11.47,11.71a4,4,0,0,0,3.87-4,3.89,3.89,0,0,0-3.87-3.79H372.4v7.77Z"/><path class="cls-1" d="M408.7,0a14.76,14.76,0,0,1,9.52,3.63.76.76,0,0,1,0,1.09l-2.42,2.54a.66.66,0,0,1-1,0,8.77,8.77,0,0,0-14.64,6.79A8.88,8.88,0,0,0,409,23a12.1,12.1,0,0,0,4.65-1V18.7h-3.13a.71.71,0,0,1-.74-.71V14.91a.71.71,0,0,1,.74-.74H418a.73.73,0,0,1,.7.74v10a.78.78,0,0,1-.31.63,19.76,19.76,0,0,1-9.68,2.53A14,14,0,0,1,408.7,0Z"/><path class="cls-1" d="M428.33,1.13a.74.74,0,0,1,.74-.74H445a.74.74,0,0,1,.74.74v3.2a.74.74,0,0,1-.74.74H433.4v6.41H443a.77.77,0,0,1,.75.74v3.24a.75.75,0,0,1-.75.74H433.4V23H445a.74.74,0,0,1,.74.74V27a.74.74,0,0,1-.74.74H429.07a.74.74,0,0,1-.74-.74Z"/><path class="cls-1" d="M455,.7a.73.73,0,0,1,.74-.7h1L472.9,17.25h0V1.13a.74.74,0,0,1,.74-.74h3.59a.77.77,0,0,1,.75.74V27.4a.73.73,0,0,1-.75.7h-.93L460,10.19h0V27a.74.74,0,0,1-.74.74h-3.55A.77.77,0,0,1,455,27Z"/><path class="cls-1" d="M492.18,5.07h-6a.74.74,0,0,1-.74-.74V1.13a.74.74,0,0,1,.74-.74h17.06a.74.74,0,0,1,.74.74v3.2a.74.74,0,0,1-.74.74h-6V27a.77.77,0,0,1-.74.74h-3.63a.77.77,0,0,1-.75-.74Z"/><path class="cls-1" d="M528.13,12.92v-.08l-.82-.9c-1.56-1.64-2.69-3.31-2.65-5.62,0-3,2.46-6.32,7.37-6.32,4.38,0,7.38,2.85,7.38,6.36,0,4-4,6.4-4.76,7.11L539.14,18a17,17,0,0,0,1.4-4.33c.16-.82.39-1.25,1.29-1l2.15.62c1,.27.74,1.13.66,1.52A26.45,26.45,0,0,1,542.22,21l3.47,3.28c.47.47.86.89-.07,1.79L544,27.75a1.14,1.14,0,0,1-1.72-.12l-2.81-2.84c-.7.82-3.44,3.31-8.51,3.31s-8.24-3.35-8.24-7.33C522.74,15.61,527.43,13.35,528.13,12.92Zm3.36,11a6.37,6.37,0,0,0,5-2.31l-5.81-6.16c-.63.39-3.32,1.67-3.32,4.8A3.8,3.8,0,0,0,531.49,23.93ZM535.2,6.6a3.1,3.1,0,0,0-3.32-2.93A2.67,2.67,0,0,0,529,6.32c0,1.37.86,2.27,2,3.52l.86.86C532.46,10.34,535.2,9,535.2,6.6Z"/><path class="cls-1" d="M50.94,46.84a13.22,13.22,0,0,1,9.45,3.63.72.72,0,0,1,0,1.09L58.05,54a.63.63,0,0,1-1,0,9.24,9.24,0,0,0-6-2.3,9.06,9.06,0,0,0,0,18.11,9.36,9.36,0,0,0,6-2.23.73.73,0,0,1,1,0l2.42,2.5a.76.76,0,0,1,0,1.06,13.43,13.43,0,0,1-9.49,3.78,14.05,14.05,0,1,1,0-28.1Z"/><path class="cls-1" d="M68.9,48a.77.77,0,0,1,.74-.74h3.63A.74.74,0,0,1,74,48V58.31H86.73V48a.75.75,0,0,1,.75-.74h3.59a.77.77,0,0,1,.74.74V73.81a.77.77,0,0,1-.74.74H87.48a.75.75,0,0,1-.75-.74V63H74V73.81a.74.74,0,0,1-.74.74H69.64a.77.77,0,0,1-.74-.74Z"/><path class="cls-1" d="M102.42,48a.77.77,0,0,1,.75-.74h3.63a.77.77,0,0,1,.74.74V73.81a.77.77,0,0,1-.74.74h-3.63a.77.77,0,0,1-.75-.74Z"/><path class="cls-1" d="M130.33,46.84a13.24,13.24,0,0,1,9.45,3.63.72.72,0,0,1,0,1.09L137.44,54a.63.63,0,0,1-1,0,9.26,9.26,0,0,0-6-2.3,9.06,9.06,0,0,0,0,18.11,9.36,9.36,0,0,0,6-2.23.73.73,0,0,1,1,0l2.42,2.5a.76.76,0,0,1,0,1.06,13.43,13.43,0,0,1-9.49,3.78,14.05,14.05,0,1,1,0-28.1Z"/><path class="cls-1" d="M145.67,73.54l12.14-26.27a.69.69,0,0,1,.66-.43h.39a.67.67,0,0,1,.67.43l12,26.27a.69.69,0,0,1-.67,1h-3.39a1.11,1.11,0,0,1-1.13-.78l-1.92-4.22H152.77l-1.91,4.22a1.17,1.17,0,0,1-1.13.78h-3.4A.69.69,0,0,1,145.67,73.54Zm16.86-8.32-3.9-8.59h-.12l-3.82,8.59Z"/><path class="cls-1" d="M189.77,46.84a14.74,14.74,0,0,1,9.53,3.63.76.76,0,0,1,0,1.09l-2.42,2.54a.68.68,0,0,1-1,0A8.86,8.86,0,0,0,190,51.83a9,9,0,0,0,0,18,12.23,12.23,0,0,0,4.64-1V65.53h-3.12a.71.71,0,0,1-.74-.7V61.75a.71.71,0,0,1,.74-.74h7.49a.74.74,0,0,1,.71.74v10a.76.76,0,0,1-.32.63,19.76,19.76,0,0,1-9.68,2.53,14,14,0,0,1,0-28.06Z"/><path class="cls-1" d="M221.31,46.84a14.05,14.05,0,1,1-14,14.09A14,14,0,0,1,221.31,46.84Zm0,23a9,9,0,1,0-8.94-8.94A9,9,0,0,0,221.31,69.87Z"/><path class="cls-1" d="M242.43,57.49a.59.59,0,0,1,.07-.89,6.3,6.3,0,0,0,2.66-4.77A4.2,4.2,0,0,1,244,52a2.58,2.58,0,0,1-2.62-2.58,2.65,2.65,0,0,1,2.77-2.61c1.41,0,3.24,1,3.24,4.17a9.42,9.42,0,0,1-3.51,7.07.6.6,0,0,1-.9,0Z"/><path class="cls-1" d="M254.49,70.73l1.4-2.42a.91.91,0,0,1,1.33-.28c.19.12,3.36,2.42,5.89,2.42,2,0,3.56-1.33,3.56-3,0-2-1.68-3.36-5-4.69-3.67-1.48-7.34-3.82-7.34-8.43,0-3.47,2.58-7.49,8.78-7.49A13.81,13.81,0,0,1,271,49.45a1,1,0,0,1,.23,1.29L269.71,53a1,1,0,0,1-1.37.46c-.31-.19-3.28-2.14-5.42-2.14s-3.44,1.48-3.44,2.73c0,1.83,1.45,3.08,4.61,4.37,3.79,1.52,8.16,3.79,8.16,8.82,0,4-3.48,7.73-9,7.73a12.57,12.57,0,0,1-8.59-3C254.33,71.54,254.14,71.35,254.49,70.73Z"/><path class="cls-1" d="M305,46.84a14.74,14.74,0,0,1,9.53,3.63.76.76,0,0,1,0,1.09L312.1,54.1a.68.68,0,0,1-1,0,8.86,8.86,0,0,0-5.89-2.27,9,9,0,0,0,0,18,12.23,12.23,0,0,0,4.64-1V65.53h-3.12a.71.71,0,0,1-.74-.7V61.75a.71.71,0,0,1,.74-.74h7.49a.74.74,0,0,1,.71.74v10a.76.76,0,0,1-.32.63A19.76,19.76,0,0,1,305,74.9a14,14,0,0,1,0-28.06Z"/><path class="cls-1" d="M324.59,48a.77.77,0,0,1,.74-.74H329a.77.77,0,0,1,.74.74V73.81a.77.77,0,0,1-.74.74h-3.63a.77.77,0,0,1-.74-.74Z"/><path class="cls-1" d="M340.24,48a.74.74,0,0,1,.74-.74h3.59a.77.77,0,0,1,.74.74v21.9h9.95a.75.75,0,0,1,.75.74v3.2a.75.75,0,0,1-.75.74H341a.74.74,0,0,1-.74-.74Z"/><path class="cls-1" d="M363.38,48a.73.73,0,0,1,.71-.74h9.25a13.66,13.66,0,1,1,0,27.32h-9.25a.73.73,0,0,1-.71-.74Zm9.49,21.82a8.62,8.62,0,0,0,8.78-8.94,8.61,8.61,0,0,0-8.78-8.9h-4.45V69.79Z"/><path class="cls-1" d="M395.82,48a.74.74,0,0,1,.74-.74h15.88a.74.74,0,0,1,.74.74v3.2a.74.74,0,0,1-.74.74H400.89v6.4h9.64a.77.77,0,0,1,.74.74v3.24a.75.75,0,0,1-.74.75h-9.64v6.83h11.55a.74.74,0,0,1,.74.74v3.2a.74.74,0,0,1-.74.74H396.56a.74.74,0,0,1-.74-.74Z"/><path class="cls-1" d="M422.43,48a.74.74,0,0,1,.71-.74h9.25a13.66,13.66,0,1,1,0,27.32h-9.25a.74.74,0,0,1-.71-.74Zm9.49,21.82a8.62,8.62,0,0,0,8.78-8.94,8.61,8.61,0,0,0-8.78-8.9h-4.45V69.79Z"/><path class="cls-1" d="M463.3,73.54l12.14-26.27a.69.69,0,0,1,.66-.43h.39a.67.67,0,0,1,.67.43l12,26.27a.69.69,0,0,1-.67,1h-3.39a1.11,1.11,0,0,1-1.13-.78l-1.92-4.22H470.4l-1.91,4.22a1.17,1.17,0,0,1-1.13.78H464A.69.69,0,0,1,463.3,73.54Zm16.86-8.32-3.9-8.59h-.12l-3.82,8.59Z"/><path class="cls-1" d="M507.4,46.84a14.74,14.74,0,0,1,9.53,3.63.76.76,0,0,1,0,1.09l-2.42,2.54a.68.68,0,0,1-1,0,8.86,8.86,0,0,0-5.89-2.27,9,9,0,0,0,0,18,12.23,12.23,0,0,0,4.64-1V65.53H509.2a.71.71,0,0,1-.74-.7V61.75a.71.71,0,0,1,.74-.74h7.49a.73.73,0,0,1,.71.74v10a.78.78,0,0,1-.31.63,19.82,19.82,0,0,1-9.69,2.53,14,14,0,0,1,0-28.06Z"/><path class="cls-1" d="M527,48a.74.74,0,0,1,.74-.74h15.89a.74.74,0,0,1,.74.74v3.2a.74.74,0,0,1-.74.74H532.11v6.4h9.64a.77.77,0,0,1,.74.74v3.24a.75.75,0,0,1-.74.75h-9.64v6.83h11.56a.74.74,0,0,1,.74.74v3.2a.74.74,0,0,1-.74.74H527.78a.74.74,0,0,1-.74-.74Z"/><path class="cls-1" d="M265,130a3,3,0,0,0,1.6-1.18,10.82,10.82,0,0,0,1.47-3.89q1-4.14,1.12-5.2c.06-.49.43-2.16,1.11-5,.22-.95.37-1.57.43-1.89a2.33,2.33,0,0,1,.06-.33l.92-5,1.07-5.58.49-2.53a10.34,10.34,0,0,0,.23-1.3,16.11,16.11,0,0,0-3.72-.93v-.19c0-.09,0-.23,0-.4a3,3,0,0,1,.57-.08c.14,0,.39,0,.76.06l.93,0,2.13.08a40.44,40.44,0,0,0,5-.21l.44,0h.23V97a.75.75,0,0,1-.28.17l-1.37.18a4.37,4.37,0,0,0-1.82.44,6,6,0,0,0-.34,1.23c-.08.36-.17.75-.27,1.18l-.15.61-.07.46c-.56,3.23-1.07,5.86-1.55,7.89l-1.68,8.39q-.68,3.26-1.47,5.92a16.28,16.28,0,0,1-2.24,4.73,7.64,7.64,0,0,1-2.5,2.25,5.26,5.26,0,0,1-2.41.59,4.23,4.23,0,0,1-1.52-.27,3.71,3.71,0,0,1-1-.7,1.56,1.56,0,0,1-.29-1,1.21,1.21,0,0,1,.34-.86,1.07,1.07,0,0,1,.81-.36,1.6,1.6,0,0,1,1,.37,3.17,3.17,0,0,1,.75,1c.3.53.6.8.9.8A1.16,1.16,0,0,0,265,130Z"/><path class="cls-1" d="M283.26,107.44a6.26,6.26,0,0,0-1.77,1.46,17.58,17.58,0,0,0-1.4,1.32,8,8,0,0,1-.64.68l-.61-.13a13.7,13.7,0,0,1,1.77-2.14,13.06,13.06,0,0,1,3-2.45,2.77,2.77,0,0,1,1.36-.44.86.86,0,0,1,.63.27.83.83,0,0,1,.26.57,2.69,2.69,0,0,1-.32,1.09c0,.07-.13.29-.29.64q-.86,2-3.32,6.81a24,24,0,0,0-2.13,4.67l0,.11a3.13,3.13,0,0,0,1.33-.8,37.8,37.8,0,0,0,3.78-3.55l.87-.91a34.59,34.59,0,0,0,3.61-4.33,38.94,38.94,0,0,0,2.44-4.49c.35,0,.65,0,.89,0a.81.81,0,0,1,.67.29c-.27.8-.77,2.11-1.51,3.92l-3.54,8.84a4.65,4.65,0,0,0-.42,1.26l.13,0c.09,0,.3-.15.63-.44a12.7,12.7,0,0,0,1.85-2,7.3,7.3,0,0,1,.59-.74l.61.09a15.1,15.1,0,0,1-3.09,3.78,3.4,3.4,0,0,1-1.88,1.1,2.66,2.66,0,0,1-.65-.11,1,1,0,0,1-.35-.69,7.79,7.79,0,0,1,.79-2.78l2.68-6.27a1.24,1.24,0,0,0,.16-.38c-.23.25-.73.82-1.51,1.71a60.85,60.85,0,0,1-4.72,5,23.79,23.79,0,0,1-4.24,3.15,2.27,2.27,0,0,1-1.08.3.58.58,0,0,1-.45-.19.72.72,0,0,1-.18-.53,2.74,2.74,0,0,1,.13-.76,15.86,15.86,0,0,1,1.09-2.48l3.26-6.42,1.33-2.84a1.89,1.89,0,0,0,.36-.84A.86.86,0,0,0,283.26,107.44Z"/><path class="cls-1" d="M301.36,96.78l.06-.55C303,96.1,304.16,96,305,96h.85v.26l-.6,1.84s-.49,1.23-1.39,3.53l-2.57,6.71q-.69,1.89-2.29,5.83l-.63,1.66a14.32,14.32,0,0,1-1.07,2.44,3.43,3.43,0,0,0-.63,1.52l.08.3a3.07,3.07,0,0,0,1.54-.86,11.92,11.92,0,0,0,2.45-2.88,2.72,2.72,0,0,1,.55-.07l.21,0a10,10,0,0,1-1.54,2.26,16.45,16.45,0,0,1-1.79,1.74,10.35,10.35,0,0,1-2.11,1.28,3,3,0,0,1-1.26.28.66.66,0,0,1-.49-.17.6.6,0,0,1-.17-.44q0-.9,3-7.87.93-2.11,2-4.84,1.77-4.77,2.72-6.79a21.47,21.47,0,0,0,1.39-3.63,1.16,1.16,0,0,0,0-.28.69.69,0,0,0-.27-.51A4.42,4.42,0,0,0,301.36,96.78Z"/><path class="cls-1" d="M295.55,129.3a2.2,2.2,0,0,0,.7.56,2.9,2.9,0,0,0,1,.12,6.48,6.48,0,0,0,2.37-.56,6.9,6.9,0,0,0,2-1.17,15.9,15.9,0,0,0,2.82-2.65,8.9,8.9,0,0,0,1.48-2.54,15.8,15.8,0,0,0,.91-3.9,32.73,32.73,0,0,0,.3-4c0-.67,0-1.88-.1-3.65a12.54,12.54,0,0,0-.29-2.48,2.06,2.06,0,0,0-.53-1,.63.63,0,0,0-.43-.15,1,1,0,0,0-.77.38,9.36,9.36,0,0,0-1.31,3.1l-.15,0a.88.88,0,0,1-.48-.21,25.59,25.59,0,0,1,.95-3.11,7.87,7.87,0,0,1,1-1.69,2.9,2.9,0,0,1,.88-.57,3.26,3.26,0,0,1,.47,0c.74,0,1.33.47,1.78,1.43a13.11,13.11,0,0,1,.91,5.4c0,1-.07,2.31-.22,3.83a29.15,29.15,0,0,1-.46,3.38c-.22,1-.34,1.67-.37,1.91a1,1,0,0,0,.21-.29,38.07,38.07,0,0,0,2.1-3.5,18,18,0,0,0,1.25-3,26.78,26.78,0,0,0,.88-3.61,13.9,13.9,0,0,0,.19-2.42c0-.31,0-.59,0-.82s0-.49,0-.55a2.33,2.33,0,0,1,.36-1.41.73.73,0,0,1,.67-.27.92.92,0,0,1,.73.27,1.3,1.3,0,0,1,.24.88,23,23,0,0,1-1.09,4.55,36.74,36.74,0,0,1-3.07,7.78,36.36,36.36,0,0,1-5.54,7.37,14.42,14.42,0,0,1-4.43,3.18,10.43,10.43,0,0,1-4,1,6,6,0,0,1-3.12-.58c-.56-.39-.84-.78-.84-1.18a.84.84,0,0,1,.29-.65.9.9,0,0,1,.66-.28,2.63,2.63,0,0,1,1.13.29A4.65,4.65,0,0,1,295.55,129.3Z"/><path class="cls-1" d="M329.64,121.39l6.08-20.89a30.65,30.65,0,0,1-6.29,3.56l-.08-1.06a25.13,25.13,0,0,0,8.86-6.27h1.26l-7.22,24.66Z"/><path class="cls-1" d="M342.62,113h20v1.77h-20Z"/><path class="cls-1" d="M367.89,116.34a2.7,2.7,0,0,1,.65.07,6.55,6.55,0,0,0,1.5,4.14,4.55,4.55,0,0,0,2.16.72l.7,0a6.59,6.59,0,0,0,2.41-.35,4.38,4.38,0,0,0,1.77-1,8,8,0,0,0,1.37-2.15,4,4,0,0,0,.28-1.66,6.06,6.06,0,0,0-.07-1,13,13,0,0,0-.56-1.82c-.28-.73-.63-1.54-1.06-2.43L375.21,107a19,19,0,0,1-1-2.65,6.67,6.67,0,0,1-.23-1.87,5.65,5.65,0,0,1,.63-2.69,6.42,6.42,0,0,1,1.81-2.07,7.38,7.38,0,0,1,2.08-1.17,9.1,9.1,0,0,1,2.66-.38,14.22,14.22,0,0,1,5.38,1.12,9.21,9.21,0,0,1-.29,2,20,20,0,0,1-.66,2.08,2.8,2.8,0,0,1-.63-.06,9.84,9.84,0,0,0-.46-2.48,2.68,2.68,0,0,0-1.09-1.41,3.34,3.34,0,0,0-2-.59,4.41,4.41,0,0,0-4.69,4.71,8.1,8.1,0,0,0,.34,2.3,39,39,0,0,0,2,4.43c.55,1.09,1,2,1.24,2.73.07.14.25.68.55,1.6a13,13,0,0,1,.48,1.7,6.4,6.4,0,0,1,.1,1.22,5.3,5.3,0,0,1-1.93,4.31,10.44,10.44,0,0,1-6.88,2.16,18.1,18.1,0,0,1-5.43-.86V121a8.69,8.69,0,0,1,.21-1.39c.05-.25.15-1,.31-2.32C367.78,117.07,367.83,116.74,367.89,116.34Z"/><path class="cls-1" d="M390.25,114.53a10.09,10.09,0,0,0-.63,3.49,3.25,3.25,0,0,0,.61,2.07,1.26,1.26,0,0,0,1.08.53,1.54,1.54,0,0,0,.75-.17,4.94,4.94,0,0,0,1.21-.85,8.92,8.92,0,0,0,1.05-1.29,7.44,7.44,0,0,0,.9-1.78h.27a3.25,3.25,0,0,1,.51,0,9,9,0,0,1-2.82,4.17,4.34,4.34,0,0,1-2.92,1.28,2.1,2.1,0,0,1-1.71-.92,5.27,5.27,0,0,1-.93-3.31,10.82,10.82,0,0,1,.27-2.2,12.77,12.77,0,0,1,.64-2.13,21.23,21.23,0,0,1,1.28-2.52l1.47-2.13c1-1,1.48-1.58,1.6-1.68a5.46,5.46,0,0,1,1.34-.87,3.58,3.58,0,0,1,1.4-.29,2.16,2.16,0,0,1,1.64.78,2.83,2.83,0,0,1,.7,2,4.38,4.38,0,0,1-.54,2.07,4.5,4.5,0,0,1-1.17,1.5l-1.58,1a14,14,0,0,1-1.43.49C392.46,114,391.47,114.28,390.25,114.53Zm.32-1a5.43,5.43,0,0,0,1.91-.47,10,10,0,0,0,1.86-1,4.81,4.81,0,0,0,1.05-1,5.85,5.85,0,0,0,.9-1.52,4.57,4.57,0,0,0,.3-1.63,1.36,1.36,0,0,0-.32-.92,1,1,0,0,0-.73-.36,2.08,2.08,0,0,0-1.22.59,12.59,12.59,0,0,0-2.47,3.45A15.81,15.81,0,0,0,390.57,113.55Z"/><path class="cls-1" d="M392.09,130.59a17.05,17.05,0,0,1,1.85-.3c.39,0,.67-.07.83-.1a4.86,4.86,0,0,1,.58-.11,1.19,1.19,0,0,0,.38-.25,4.1,4.1,0,0,0,.51-1l1.89-5a22.12,22.12,0,0,0,.76-2.15c.15-.5.32-1,.51-1.45a8,8,0,0,0,.31-.91c.08-.29.14-.5.19-.63l1.77-4.94c.07-.19.54-1.59,1.43-4.19.27-.79.51-1.58.73-2.36a19.79,19.79,0,0,0-2.37.53l-.59.17a3.78,3.78,0,0,1-.87.29,1.39,1.39,0,0,1-.48-.14l0-.2a.53.53,0,0,1,.31-.46,16.55,16.55,0,0,1,4.42-1.34,25.81,25.81,0,0,0,1.1-3.24,4.22,4.22,0,0,1,.65-1.58,3.88,3.88,0,0,1,.48,0l.81,0a1,1,0,0,1,.32.56l-.08.26-.24.88a10.81,10.81,0,0,1-.37,1.08c-.33.86-.54,1.43-.63,1.72.56,0,.93-.06,1.13-.06s.5,0,.91,0h.09a4.94,4.94,0,0,1,2.11.53,5,5,0,0,1,2.24,2,6.1,6.1,0,0,1,.7,3,8.44,8.44,0,0,1-.49,2.73,12.32,12.32,0,0,1-1.51,3,10.81,10.81,0,0,1-2.3,2.53,8.14,8.14,0,0,1-2.3,1.36,11.51,11.51,0,0,1-3,.8,5.45,5.45,0,0,1-1.19-.15,9.21,9.21,0,0,1-1.45-.46q-.76,1.55-2.54,6.62c-.23.67-.41,1.17-.55,1.49a2.15,2.15,0,0,0-.21.75l0,.18.21.17a5.69,5.69,0,0,0,1.23.19,10.26,10.26,0,0,1,1.25.13.89.89,0,0,0,.24.14l.1.3a.33.33,0,0,1-.1.21c-.49,0-.87,0-1.14,0l-.44,0-.46,0-3.5-.13a7.14,7.14,0,0,0-1.47.11c-.45,0-.83,0-1.14,0H392l0-.13A1.25,1.25,0,0,1,392.09,130.59Zm15.84-11.83a12.28,12.28,0,0,0,2.52-4,10.42,10.42,0,0,0,.75-3.55,7.82,7.82,0,0,0-.26-2,2.12,2.12,0,0,0-.55-1,3.87,3.87,0,0,0-1.14-.85,5.79,5.79,0,0,0-2.33-.41q-.44,0-1.05.06-1.26,3.93-2.08,6.1l-1.58,4.56a5.5,5.5,0,0,0-.27,1.06,3.45,3.45,0,0,0-.05.57,1.12,1.12,0,0,0,.36.94,2.54,2.54,0,0,0,1.58.44,4.34,4.34,0,0,0,1.74-.36A15.08,15.08,0,0,0,407.93,118.76Z"/><path class="cls-1" d="M420.42,107.53h-1.16l-.53,0-1.24,0h-.25a2.85,2.85,0,0,1,.33-1c1.85,0,2.95-.1,3.3-.13.25-.62.46-1.1.63-1.47.38-.83.76-1.81,1.16-2.94a9.63,9.63,0,0,1,.41-1,7.18,7.18,0,0,1,1,0,4.14,4.14,0,0,1,.87.09l0,.31a31.58,31.58,0,0,1-1.68,4.19,7.28,7.28,0,0,0-.32.89,5.69,5.69,0,0,0,.64.1h.4l.64,0,1.81,0a2.09,2.09,0,0,1-.23,1c-.5.05-1.16.08-2,.08a6.72,6.72,0,0,0-.77,0,3.69,3.69,0,0,0-1.11.19l-3.1,7.44c-.34.71-.94,2.08-1.77,4.09a.43.43,0,0,0,.11.26l.25,0a2.23,2.23,0,0,0,1.28-.65,22.7,22.7,0,0,0,3.12-3.33,2.57,2.57,0,0,1,.56.4c-1.25,1.54-2.14,2.55-2.64,3a14.94,14.94,0,0,1-1.94,1.52,14.06,14.06,0,0,1-1.41.89,2.46,2.46,0,0,1-.88.17,1,1,0,0,1-.69-.2A.77.77,0,0,1,415,121a9.34,9.34,0,0,1,.91-2.57l.8-1.78,2.81-6.76Q420.09,108.52,420.42,107.53Z"/><path class="cls-1" d="M427.71,114.53a10.09,10.09,0,0,0-.63,3.49,3.25,3.25,0,0,0,.61,2.07,1.26,1.26,0,0,0,1.08.53,1.54,1.54,0,0,0,.75-.17,4.94,4.94,0,0,0,1.21-.85,8.92,8.92,0,0,0,1-1.29,7.44,7.44,0,0,0,.9-1.78H433a3.25,3.25,0,0,1,.51,0,9,9,0,0,1-2.82,4.17,4.34,4.34,0,0,1-2.92,1.28,2.1,2.1,0,0,1-1.71-.92,5.27,5.27,0,0,1-.93-3.31,10.82,10.82,0,0,1,.27-2.2,12.77,12.77,0,0,1,.64-2.13,21.23,21.23,0,0,1,1.28-2.52l1.47-2.13c.95-1,1.48-1.58,1.6-1.68a5.46,5.46,0,0,1,1.34-.87,3.58,3.58,0,0,1,1.4-.29,2.16,2.16,0,0,1,1.64.78,2.83,2.83,0,0,1,.7,2,4.38,4.38,0,0,1-.54,2.07,4.5,4.5,0,0,1-1.17,1.5l-1.58,1a14,14,0,0,1-1.43.49C429.92,114,428.93,114.28,427.71,114.53Zm.32-1a5.43,5.43,0,0,0,1.91-.47,10,10,0,0,0,1.86-1,4.81,4.81,0,0,0,1.05-1,5.85,5.85,0,0,0,.9-1.52,4.57,4.57,0,0,0,.3-1.63,1.36,1.36,0,0,0-.32-.92,1,1,0,0,0-.73-.36,2.08,2.08,0,0,0-1.22.59,12.59,12.59,0,0,0-2.47,3.45A15.81,15.81,0,0,0,428,113.55Z"/><path class="cls-1" d="M442.31,107.7l-.27-.07a2.18,2.18,0,0,0-1.06.55,12.28,12.28,0,0,0-2.28,2.21,4.43,4.43,0,0,1-.38.46l-.72-.1a8.54,8.54,0,0,1,1.18-1.58,21.81,21.81,0,0,1,1.9-1.81,9.77,9.77,0,0,1,2-1.22,2.38,2.38,0,0,1,1-.21,1,1,0,0,1,.69.25.69.69,0,0,1,.28.53c0,.45-.74,2.12-2.23,5-.42.84-.69,1.41-.82,1.72.7-.74,1.59-1.75,2.69-3a31.37,31.37,0,0,1,3.12-3.13,5.64,5.64,0,0,1,1.74-1,4.79,4.79,0,0,1,1.6-.36,1.32,1.32,0,0,1,.89.34.87.87,0,0,1,.25.67q0,1.64-2.19,5.7l-.88,1.68-.11.3,1.94-2.3,1.22-1.34c.41-.39.7-.7.88-.91a13.67,13.67,0,0,1,3.34-3,5.92,5.92,0,0,1,2.72-1,1,1,0,0,1,.74.33,1.22,1.22,0,0,1,.33.91,3.38,3.38,0,0,1-.08.72,11.06,11.06,0,0,1-.61,1.7c0,.06-.58,1.08-1.66,3-.62,1.14-1.1,2-1.43,2.52l-.95,1.51a8.9,8.9,0,0,1-1.07,1.58,3,3,0,0,0-1.1,1.79.25.25,0,0,0,.13.19,3.31,3.31,0,0,0,.71-.38,22.65,22.65,0,0,0,3.05-2.42l.59.15a9.37,9.37,0,0,1-3,2.91,6.93,6.93,0,0,1-3.72,1.36.92.92,0,0,1-.69-.3.93.93,0,0,1,.08-.41c0-.11.25-.46.61-1l3.16-5.13q2.55-4.14,3.05-5.26a9.88,9.88,0,0,0,.73-1.94.52.52,0,0,0-.14-.36.45.45,0,0,0-.32-.14,1.58,1.58,0,0,0-.69.23,11.5,11.5,0,0,0-2.57,2.15c-1.93,2.06-3.41,3.69-4.42,4.9a38.83,38.83,0,0,0-4.14,6,4.26,4.26,0,0,1-.89,1.2,5.76,5.76,0,0,1-.82.06,4,4,0,0,1-1-.11,3.55,3.55,0,0,1,.53-1.13c.61-1,1.58-2.7,2.93-5.16s2.23-4.14,2.65-5a14,14,0,0,0,.79-2,1.56,1.56,0,0,0,.06-.44.82.82,0,0,0-.19-.55.33.33,0,0,0-.28-.17,2,2,0,0,0-.9.34,11.48,11.48,0,0,0-2.46,2.16q-2.75,2.91-3.09,3.35a59.54,59.54,0,0,0-3.48,4.86c0,.08-.29.5-.74,1.27s-.75,1.3-.9,1.59a3.66,3.66,0,0,1-.75.84,6.85,6.85,0,0,1-.83,0,1.73,1.73,0,0,1-.5-.07l-.08-.27a1.66,1.66,0,0,1,.29-.76q.12-.19,3.13-6l3.4-6.65A1.62,1.62,0,0,0,442.31,107.7Z"/><path class="cls-1" d="M467.65,97.35a2.76,2.76,0,0,0-1.52-.34h-.31l0-.55a11.26,11.26,0,0,1,2.11-.17c.22,0,1-.05,2.44-.14,0,.19-.43,1.42-1.18,3.68l-1.43,4.48c-.13.48-.45,1.49-1,3l-2.1,6.79,2.71-3.64q2.38-2.82,2.8-3.21A6.67,6.67,0,0,1,472,106a3.55,3.55,0,0,1,1.39-.34,1.63,1.63,0,0,1,1.26.67,3.18,3.18,0,0,1,.71,2.06,12.08,12.08,0,0,1-1.27,5.15,17.07,17.07,0,0,1-3.52,4.89,15.37,15.37,0,0,1-4.26,2.74,6.55,6.55,0,0,1-2.58.75,2.47,2.47,0,0,1-1.75-.59,1.89,1.89,0,0,1-.63-1.41,8.93,8.93,0,0,1,.41-2.44l1-3.54,3.72-11.26c.44-1.42.85-2.64,1.24-3.65a3.13,3.13,0,0,0,.22-1A1.1,1.1,0,0,0,467.65,97.35Zm-3.1,23.81a2.51,2.51,0,0,0,1.26-.4,12.34,12.34,0,0,0,2.92-2.65,25.42,25.42,0,0,0,2.22-2.9,26.69,26.69,0,0,0,2-4.13,7.49,7.49,0,0,0,.6-2.67,1.15,1.15,0,0,0-.35-.87,1.24,1.24,0,0,0-.89-.33,2.35,2.35,0,0,0-1.15.36,12.31,12.31,0,0,0-2.83,2.7,43,43,0,0,0-3.35,4.39,12.78,12.78,0,0,0-1.25,2.92,10.07,10.07,0,0,0-.48,2.2,1.4,1.4,0,0,0,.35,1A1.18,1.18,0,0,0,464.55,121.16Z"/><path class="cls-1" d="M479.33,114.53a10.08,10.08,0,0,0-.62,3.49,3.31,3.31,0,0,0,.6,2.07,1.28,1.28,0,0,0,1.09.53,1.47,1.47,0,0,0,.74-.17,4.75,4.75,0,0,0,1.21-.85,8.92,8.92,0,0,0,1.06-1.29,7.44,7.44,0,0,0,.9-1.78h.27a3.25,3.25,0,0,1,.51,0,9,9,0,0,1-2.82,4.17,4.34,4.34,0,0,1-2.92,1.28,2.1,2.1,0,0,1-1.71-.92,5.21,5.21,0,0,1-.94-3.31,10.91,10.91,0,0,1,.28-2.2,11.89,11.89,0,0,1,.64-2.13,19.83,19.83,0,0,1,1.28-2.52l1.46-2.13c1-1,1.49-1.58,1.6-1.68a5.7,5.7,0,0,1,1.35-.87,3.58,3.58,0,0,1,1.4-.29,2.16,2.16,0,0,1,1.64.78,2.83,2.83,0,0,1,.7,2,4.38,4.38,0,0,1-.54,2.07,4.5,4.5,0,0,1-1.17,1.5l-1.59,1a12.64,12.64,0,0,1-1.42.49Q481.16,114.16,479.33,114.53Zm.33-1a5.39,5.39,0,0,0,1.9-.47,10,10,0,0,0,1.87-1,4.81,4.81,0,0,0,1.05-1,6.14,6.14,0,0,0,.9-1.52,4.57,4.57,0,0,0,.3-1.63,1.36,1.36,0,0,0-.32-.92,1,1,0,0,0-.73-.36,2.08,2.08,0,0,0-1.22.59,12.59,12.59,0,0,0-2.48,3.45A16.33,16.33,0,0,0,479.66,113.55Z"/><path class="cls-1" d="M492.35,107.4a7.8,7.8,0,0,0-1.18,1.06c-.1.12-.68.88-1.74,2.29l-.78,0a11.83,11.83,0,0,1,1.77-2.53,9.45,9.45,0,0,1,2.25-2.06,3.1,3.1,0,0,1,1.36-.42,1.27,1.27,0,0,1,.66.36.84.84,0,0,1,.18.54,2.41,2.41,0,0,1-.08.65,26.88,26.88,0,0,1-.83,3c-.42,1.3-.79,2.32-1.11,3.07l-1,2.34-.08.34c.18-.3.54-1,1.09-2q3.11-5.9,4.47-7.27a3.31,3.31,0,0,1,2.37-1,2.1,2.1,0,0,1,1.43.61,1.66,1.66,0,0,1,.49,1.26,2.19,2.19,0,0,1-.55,1.5,1.37,1.37,0,0,1-1.09.44,1,1,0,0,1-.83-.28,2.68,2.68,0,0,1-.29-1.38c-.17-.33-.35-.49-.55-.49a1,1,0,0,0-.65.32,28.45,28.45,0,0,0-3.46,5.24,51.65,51.65,0,0,0-3.18,6.15,14.9,14.9,0,0,1-1,2.37.85.85,0,0,1-.77.32,1.15,1.15,0,0,1-.73-.18.55.55,0,0,1-.22-.46,2.64,2.64,0,0,1,.19-.88q.82-2,2.63-7.38l1.34-4.07a7.18,7.18,0,0,1,.19-.7l.11-.28C492.73,107.76,492.6,107.6,492.35,107.4Z"/><path class="cls-1" d="M516.61,101.2l-.78-.34a5.74,5.74,0,0,1,2.12-3,5.48,5.48,0,0,1,3.33-1.14,4.27,4.27,0,0,1,3,1,3.12,3.12,0,0,1,1,2.4,3.55,3.55,0,0,1-.46,1.78,5,5,0,0,1-1.35,1.54c-.25.2-1.44,1-3.54,2.45a5.16,5.16,0,0,1,2.86,1.52,4,4,0,0,1,.89,2.62,10.31,10.31,0,0,1-1.85,5.42,13.15,13.15,0,0,1-5.26,4.69,15,15,0,0,1-7,1.76h-1.15l.17-.81a13.25,13.25,0,0,0,4.6-.82,11.77,11.77,0,0,0,4-2.4,13.21,13.21,0,0,0,2.76-3.51,7.86,7.86,0,0,0,1-3.65,3.11,3.11,0,0,0-.75-2.2,2.49,2.49,0,0,0-1.91-.81,4.1,4.1,0,0,0-1.83.55,8.68,8.68,0,0,0-2.18,1.43,1.75,1.75,0,0,1-.53-.71,21.38,21.38,0,0,1,2.9-2.05,29.73,29.73,0,0,0,3.45-2.29,7.73,7.73,0,0,0,1.81-2.08,4.56,4.56,0,0,0,.59-2.23,1.9,1.9,0,0,0-.59-1.42,2.22,2.22,0,0,0-1.57-.56,3.76,3.76,0,0,0-2.07.69A5,5,0,0,0,516.61,101.2Z"/><path class="cls-1" d="M528,113.34a20.12,20.12,0,0,1,1.75-7.92c1.41-3.31,3-5.59,4.63-6.86a8.28,8.28,0,0,1,5-1.89,4,4,0,0,1,3.39,1.6q1.62,2.12,1.62,6.56A22,22,0,0,1,541.69,115a15.69,15.69,0,0,1-4.29,5.24,6.44,6.44,0,0,1-4,1.56,4.23,4.23,0,0,1-3.51-1.77A10.68,10.68,0,0,1,528,113.34Zm2.5,2.58c0,1.94.26,3.26.78,4a2.44,2.44,0,0,0,2,1,4.08,4.08,0,0,0,3.14-1.58q2.09-2.33,4.08-9.09a32.29,32.29,0,0,0,1.62-8.45,5.37,5.37,0,0,0-.95-3.41,2.3,2.3,0,0,0-1.93-.84,4.8,4.8,0,0,0-3.58,1.93q-2.16,2.41-3.83,8.41A30.19,30.19,0,0,0,530.49,115.92Z"/></svg>