<svg width="30px" height="30px" viewBox="0 0 30 30" version="1.1" xmlns="http://www.w3.org/2000/svg" xmlns:xlink="http://www.w3.org/1999/xlink">
    <!-- Generator: Sketch 49.3 (51167) - http://www.bohemiancoding.com/sketch -->
    <desc>Created with Sketch.</desc>
    <defs>
        <polygon id="path-1" points="29.4916483 0.225565789 0.000122881356 0.225565789 0.000122881356 29.5938645 29.4916483 29.5938645 29.4916483 0.225565789"></polygon>
    </defs>
    <g id="Welcome" stroke="none" stroke-width="1" fill="none" fill-rule="evenodd">
        <g id="Desktop" transform="translate(-514.000000, -8075.000000)">
            <g id="Page-1" transform="translate(514.000000, 8075.000000)">
                <g id="Group-13">
                    <mask id="mask-2" fill="white">
                        <use xlink:href="#path-1"></use>
                    </mask>
                    <g id="Clip-12"></g>
                    <path d="M19.1102218,8.86424605 L17.0495014,8.86424605 C16.3216342,8.86424605 16.1700805,9.16119342 16.1700805,9.91049605 L16.1700805,11.7215487 L19.1102218,11.7215487 L18.827185,14.9006803 L16.1700805,14.9006803 L16.1700805,24.3972855 L12.3619873,24.3972855 L12.3619873,14.9406539 L10.3815494,14.9406539 L10.3815494,11.7215487 L12.3619873,11.7215487 L12.3619873,9.18648289 C12.3619873,6.80723289 13.6399534,5.56478553 16.4735975,5.56478553 L19.1102218,5.56478553 L19.1102218,8.86424605 Z M14.7458856,0.225443421 C6.60171893,0.225443421 0.000122881356,6.79948289 0.000122881356,14.9096539 C0.000122881356,23.019825 6.60171893,29.5938645 14.7458856,29.5938645 C22.8896427,29.5938645 29.4916483,23.019825 29.4916483,14.9096539 C29.4916483,6.79948289 22.8896427,0.225443421 14.7458856,0.225443421 L14.7458856,0.225443421 Z" id="Fill-11" fill="#FFFFFF" mask="url(#mask-2)"></path>
                </g>
            </g>
        </g>
    </g>
</svg>