<svg width="31px" height="30px" viewBox="0 0 31 30" version="1.1" xmlns="http://www.w3.org/2000/svg" xmlns:xlink="http://www.w3.org/1999/xlink">
    <!-- Generator: Sketch 49.3 (51167) - http://www.bohemiancoding.com/sketch -->
    <desc>Created with Sketch.</desc>
    <defs></defs>
    <g id="Welcome" stroke="none" stroke-width="1" fill="none" fill-rule="evenodd">
        <g id="Desktop" transform="translate(-590.000000, -8075.000000)" fill="#FFFFFF">
            <g id="Page-1" transform="translate(514.000000, 8075.000000)">
                <path d="M99.9799167,10.05795 C99.9799167,8.25423947 98.5110749,6.79193684 96.6998037,6.79193684 L87.7368376,6.79193684 L87.7368376,10.9096342 L87.0646766,10.9096342 L87.0646766,6.79193684 L86.6763715,6.79193684 C86.6505664,6.79193684 86.6255805,6.79316053 86.600185,6.79356842 L86.600185,10.9096342 L85.9276144,10.9096342 L85.9276144,6.87841053 C85.7650014,6.91634474 85.6064845,6.96610789 85.4541116,7.02688421 L85.4541116,10.9096342 L84.7819506,10.9096342 L84.7819506,7.39276579 C83.9438997,7.98421316 83.3962585,8.95704211 83.3962585,10.05795 L83.3962585,12.2030684 L88.6543517,12.2030684 C89.4239986,11.4252132 90.493476,10.9418579 91.6768234,10.9418579 C92.8605805,10.9418579 93.9300579,11.4252132 94.7001144,12.2030684 L99.9795071,12.2030684 L99.9795071,10.05795 L99.9799167,10.05795 Z M91.6768234,18.4230553 C93.4799025,18.4230553 94.9462867,16.9627921 94.9462867,15.1672395 C94.9462867,14.1931868 94.5133347,13.3178447 93.8297048,12.7202789 C93.5896766,12.5114368 93.3193376,12.33645 93.0252415,12.2030684 C92.6144082,12.0170684 92.1576992,11.9122395 91.6768234,11.9122395 C91.1967669,11.9122395 90.7400579,12.0170684 90.328815,12.2030684 C90.0351285,12.33645 89.7643799,12.5114368 89.5247613,12.7202789 C88.8411314,13.3178447 88.4081794,14.1931868 88.4081794,15.1672395 C88.4081794,16.9627921 89.8745636,18.4230553 91.6768234,18.4230553 L91.6768234,18.4230553 Z M99.9799167,12.7202789 L95.135524,12.7202789 C95.6290975,13.4112526 95.9207359,14.2551868 95.9207359,15.1672395 C95.9207359,17.5012132 94.0205805,19.3934368 91.6768234,19.3934368 C89.3338856,19.3934368 87.4337302,17.5012132 87.4337302,15.1672395 C87.4337302,14.2551868 87.724959,13.4112526 88.2189421,12.7202789 L83.3962585,12.7202789 L83.3962585,20.1264237 C83.3962585,21.9297263 84.8651003,23.3920289 86.6763715,23.3920289 L96.6998037,23.3920289 C98.5114845,23.3920289 99.9799167,21.9297263 99.9799167,20.1264237 L99.9799167,12.7202789 Z M106.218603,15.0921868 C106.218603,23.2023579 99.6170071,29.7763974 91.4728404,29.7763974 C83.3294929,29.7763974 76.7270777,23.2023579 76.7270777,15.0921868 C76.7270777,6.98201579 83.3294929,0.407976316 91.4728404,0.407976316 C99.6170071,0.407976316 106.218603,6.98201579 106.218603,15.0921868 L106.218603,15.0921868 Z M91.6878828,17.5734105 C93.0223743,17.5734105 94.1037302,16.4961605 94.1037302,15.1672395 C94.1037302,13.8391342 93.0223743,12.7618842 91.6878828,12.7618842 C90.3533912,12.7618842 89.2716257,13.8391342 89.2716257,15.1672395 C89.2716257,16.4961605 90.3533912,17.5734105 91.6878828,17.5734105 L91.6878828,17.5734105 Z M98.4807641,8.68130526 L98.4807641,10.4862395 C98.4807641,10.7754368 98.2452415,11.0099763 97.9544223,11.0099763 L96.181654,11.0099763 C95.8908347,11.0099763 95.6549025,10.7754368 95.6549025,10.4862395 L95.6549025,8.68130526 C95.6549025,8.39210789 95.8908347,8.15756842 96.181654,8.15756842 L97.9544223,8.15756842 C98.2452415,8.15756842 98.4807641,8.39210789 98.4807641,8.68130526 L98.4807641,8.68130526 Z" id="Fill-9"></path>
            </g>
        </g>
    </g>
</svg>