<svg width="30px" height="30px" viewBox="0 0 30 30" version="1.1" xmlns="http://www.w3.org/2000/svg" xmlns:xlink="http://www.w3.org/1999/xlink">
    <!-- Generator: Sketch 49.3 (51167) - http://www.bohemiancoding.com/sketch -->
    <desc>Created with Sketch.</desc>
    <defs></defs>
    <g id="Welcome" stroke="none" stroke-width="1" fill="none" fill-rule="evenodd">
        <g id="Desktop" transform="translate(-552.000000, -8075.000000)" fill="#FFFFFF">
            <g id="Page-1" transform="translate(514.000000, 8075.000000)">
                <g id="Group-16" transform="translate(38.093220, 0.182329)">
                    <path d="M22.1616525,12.1540395 C22.3775141,16.9443553 18.7906073,22.2853289 12.4405085,22.2853289 C10.5092232,22.2853289 8.71146893,21.7212105 7.19798023,20.7549079 C9.01211864,20.9678289 10.8233898,20.4669342 12.2611017,19.3444079 C10.7648164,19.3170789 9.50159605,18.3324211 9.06659605,16.9794342 C9.60235876,17.0814079 10.1295198,17.0516316 10.6108051,16.9215132 C8.96583333,16.5919342 7.83081921,15.1165789 7.86768362,13.5388421 C8.32889831,13.7937763 8.85646893,13.9471447 9.41721751,13.9642763 C7.89389831,12.9510658 7.46258475,10.9483026 8.35879944,9.41747368 C10.0451412,11.4781579 12.5650282,12.834 15.4076836,12.9763553 C14.9091949,10.8455132 16.532048,8.79421053 18.7394068,8.79421053 C19.7232768,8.79421053 20.6121186,9.20740789 21.2355367,9.86942105 C22.0146045,9.71686842 22.7465678,9.43338158 23.4072599,9.04302632 C23.1520763,9.83842105 22.6097599,10.5061447 21.9036017,10.9270921 C22.5954237,10.8451053 23.2544774,10.6619605 23.868065,10.3911184 C23.4097175,11.0743421 22.8297175,11.6739474 22.1616525,12.1540395 M14.7457627,0 C6.60200565,0 0,6.57403947 0,14.6842105 C0,22.7943816 6.60200565,29.3684211 14.7457627,29.3684211 C22.8895198,29.3684211 29.4915254,22.7943816 29.4915254,14.6842105 C29.4915254,6.57403947 22.8895198,0 14.7457627,0" id="Fill-14"></path>
                </g>
            </g>
        </g>
    </g>
</svg>