<svg width="30px" height="31px" viewBox="0 0 30 31" version="1.1" xmlns="http://www.w3.org/2000/svg" xmlns:xlink="http://www.w3.org/1999/xlink">
    <!-- Generator: Sketch 49.3 (51167) - http://www.bohemiancoding.com/sketch -->
    <desc>Created with Sketch.</desc>
    <defs></defs>
    <g id="Welcome" stroke="none" stroke-width="1" fill="none" fill-rule="evenodd">
        <g id="Desktop" transform="translate(-629.000000, -8075.000000)" fill="#FFFFFF">
            <g id="Page-1" transform="translate(514.000000, 8075.000000)">
                <g id="Group-19" transform="translate(115.194444, 0.794872)">
                    <path d="M22.9886441,21.5184868 C22.9886441,22.7654211 21.9740537,23.7753684 20.7223023,23.7753684 L9.06987288,23.7753684 C7.81771186,23.7753684 6.80312147,22.7654211 6.80312147,21.5184868 L6.80312147,15.8161184 C6.80312147,14.5691842 7.81771186,13.5580132 9.06987288,13.5580132 L20.7223023,13.5580132 C21.9740537,13.5580132 22.9886441,14.5691842 22.9886441,15.8161184 L22.9886441,21.5184868 Z M10.2986864,5.17577632 L11.0666949,8.0445 L11.780226,5.17577632 L12.9107345,5.17577632 L11.6151554,9.44194737 L11.6151554,12.3530921 L10.5018503,12.3530921 L10.5018503,9.44194737 L9.17759887,5.17577632 L10.2986864,5.17577632 Z M14.3091243,7.01456579 C15.1107203,7.01456579 15.7300424,7.60846053 15.7300424,8.43771053 L15.7300424,11.0327368 C15.7300424,11.9223553 15.1041667,12.4513947 14.3091243,12.4513947 C13.3506497,12.4513947 12.8599435,11.9655921 12.8599435,11.0327368 L12.8599435,8.43771053 C12.8599435,7.58806579 13.4378955,7.01456579 14.3091243,7.01456579 L14.3091243,7.01456579 Z M16.569322,7.05821053 L17.5581073,7.05821053 L17.5581073,11.1175789 C17.5581073,11.3305 17.6093079,11.4740789 17.8214831,11.4740789 C18.0139972,11.4740789 18.2822881,11.2277105 18.4031215,11.0771974 L18.4031215,7.05902632 L19.3910876,7.05902632 L19.3910876,12.3530921 L18.4031215,12.3530921 L18.4031215,11.7689868 C17.9742655,12.2751842 17.5589266,12.4297763 17.2599153,12.4297763 C16.7302966,12.4297763 16.569322,12.0071974 16.569322,11.4838684 L16.569322,7.05821053 Z M14.823178,0 C6.63682203,0 0,6.60952632 0,14.7625263 C0,22.9151184 6.63682203,29.5242368 14.823178,29.5242368 C23.0111723,29.5242368 29.648404,22.9151184 29.648404,14.7625263 C29.648404,6.60952632 23.0111723,0 14.823178,0 L14.823178,0 Z M20.5293785,18.8998026 L19.6974718,18.8998026 L19.6974718,18.3899342 C19.6974718,18.0428158 19.7695621,17.7984868 20.1181356,17.7984868 C20.4556497,17.7984868 20.5293785,18.0481184 20.5293785,18.3899342 L20.5293785,18.8998026 Z M20.1582768,16.9158026 C19.3087571,16.9158026 18.7287571,17.5231579 18.7287571,18.3993158 L18.7287571,20.6623158 C18.7287571,21.5702895 19.1879237,22.2225132 20.0870056,22.2225132 C21.0790678,22.2225132 21.4980932,21.6339211 21.4980932,20.6623158 L21.4980932,20.2833816 L20.5293785,20.2833816 L20.5293785,20.6337632 C20.5293785,21.0730658 20.5060311,21.3394211 20.1087147,21.3394211 C19.7294209,21.3394211 19.6974718,21.0126974 19.6974718,20.6337632 L19.6974718,19.6825526 L21.4980932,19.6825526 L21.4980932,18.3993158 C21.4980932,17.4872632 21.0614548,16.9158026 20.1582768,16.9158026 L20.1582768,16.9158026 Z M11.7191949,16.2419605 L10.6226836,16.2419605 L10.6226836,22.0858684 L9.56262712,22.0858684 L9.56262712,16.2419605 L8.46488701,16.2419605 L8.46488701,15.2495526 L11.7191949,15.2495526 L11.7191949,16.2419605 Z M13.4522316,17.0434737 L14.3939124,17.0434737 L14.3939124,22.0858684 L13.4522316,22.0858684 L13.4522316,21.5290921 C13.2785593,21.7338553 13.0979237,21.8908947 12.9107345,21.9977632 C12.4032345,22.2873684 11.7064972,22.28125 11.7064972,21.2578421 L11.7064972,17.0434737 L12.648178,17.0434737 L12.648178,20.9082763 C12.648178,21.1114079 12.6977401,21.2484605 12.8984463,21.2484605 C13.0815395,21.2484605 13.3375424,21.0143289 13.4522316,20.8711579 L13.4522316,17.0434737 Z M13.8778107,10.9878684 L13.8778107,8.52459211 C13.8778107,8.23498684 14.012161,8.01961842 14.2898729,8.01961842 C14.5929802,8.01961842 14.7224153,8.22846053 14.7224153,8.52459211 L14.7224153,10.9878684 C14.7224153,11.27625 14.5753672,11.4895789 14.3091243,11.4895789 C14.0363277,11.4895789 13.8778107,11.2668684 13.8778107,10.9878684 L13.8778107,10.9878684 Z M17.0493785,20.9041974 C17.0493785,21.0649079 17.0223446,21.1803421 16.967048,21.2517237 C16.8638277,21.3871447 16.6389548,21.3810263 16.4861723,21.3031184 C16.4140819,21.2676316 16.3399435,21.2076711 16.2629379,21.1260921 L16.2629379,17.9836711 C16.3268362,17.9143289 16.3911441,17.8629342 16.4575,17.8298947 C16.622161,17.7470921 16.8351554,17.763 16.9486158,17.9126974 C17.0149718,18.0003947 17.0493785,18.1296974 17.0493785,18.2997895 L17.0493785,20.9041974 Z M17.0997599,16.9794342 C16.7638842,16.9794342 16.475113,17.1927632 16.2629379,17.4505526 L16.2629379,15.2495526 L15.3122458,15.2495526 L15.3122458,22.0858684 L16.2629379,22.0858684 L16.2629379,21.6987763 C16.5254944,22.0242763 16.8126271,22.1495 17.1575141,22.1495 C17.7837994,22.1495 18.0180932,21.6645132 18.0180932,21.04125 L18.0180932,18.2435 C18.0180932,17.5598684 17.7895339,16.9794342 17.0997599,16.9794342 L17.0997599,16.9794342 Z" id="Fill-17"></path>
                </g>
            </g>
        </g>
    </g>
</svg>